<?xml version="1.0" encoding="UTF-8"?>
<svg id="a" data-name="Layer 1" xmlns="http://www.w3.org/2000/svg" width="178mm" height="178mm" viewBox="0 0 504.6 504.6">
  <rect x="104.6" y="458.7" width="295.4" height="40.8" rx="12" ry="12" style="fill: none; stroke: #fff; stroke-miterlimit: 10; stroke-width: .8px;"/>
  <g>
    <path d="m129.8,472.9v10.2h-2.8v-6.7c-.5.3-.9.6-1.3.8s-1,.4-1.6.6v-2.3c.9-.3,1.7-.7,2.2-1.1s.9-1,1.2-1.6h2.3Z" style="fill: #fff;"/>
    <path d="m134.5,477.7c-.4-.2-.8-.5-1-.8-.3-.4-.4-.8-.4-1.4,0-.8.4-1.5,1.2-2.1.6-.4,1.4-.6,2.4-.6s2.3.3,3,.8,1,1.2,1,1.9-.1.9-.4,1.3c-.2.3-.5.6-.9.8.5.3.9.6,1.2,1s.4.9.4,1.4-.1,1-.3,1.4c-.2.4-.5.8-.8,1s-.8.4-1.3.5c-.5.1-1,.2-1.6.2-1.1,0-1.9-.1-2.4-.4s-1-.6-1.3-1.1-.4-1-.4-1.6.1-1.1.4-1.5c.3-.4.7-.7,1.3-.9Zm1.1,2.3c0,.4.1.8.4,1.1.3.3.6.4.9.4s.6-.1.9-.4c.3-.3.4-.6.4-1.1s-.1-.8-.4-1.1-.6-.4-.9-.4-.6.1-.9.4-.4.6-.4,1.1Zm.2-4.3c0,.3.1.6.3.8.2.2.5.3.9.3s.6-.1.8-.3.3-.5.3-.8-.1-.6-.3-.8c-.2-.2-.5-.3-.8-.3s-.6.1-.8.3c-.2.2-.3.5-.3.8Z" style="fill: #fff;"/>
    <path d="m142.2,478.1c0-1.9.3-3.2,1-4s1.7-1.1,3.1-1.1,1.2,0,1.7.2c.4.2.8.4,1.1.7.3.3.5.5.6.8.2.3.3.6.4,1,.2.7.3,1.5.3,2.3,0,1.8-.3,3.1-.9,4s-1.7,1.3-3.2,1.3-1.5-.1-2-.4-.9-.7-1.3-1.2c-.2-.4-.4-.9-.6-1.5-.1-.6-.2-1.3-.2-2.1Zm2.8,0c0,1.3.1,2.1.3,2.6.2.5.6.7,1,.7s.5,0,.7-.3c.2-.2.4-.5.5-.9s.1-1.1.1-2c0-1.3-.1-2.2-.3-2.7-.2-.5-.6-.7-1-.7s-.8.2-1,.7c-.2.5-.3,1.3-.3,2.6Z" style="fill: #fff;"/>
    <path d="m151.8,475.8h2.6v1.1c.4-.4.8-.8,1.1-.9.4-.2.8-.3,1.4-.3s1,.1,1.4.3c.3.2.6.5.8.9.4-.5.8-.8,1.2-1,.4-.2.8-.3,1.3-.3.8,0,1.4.2,1.8.7.4.5.7,1.2.7,2.2v4.6h-2.8v-4.1c0-.3,0-.6-.2-.7-.2-.3-.4-.4-.7-.4s-.6.1-.8.4-.3.6-.3,1.1v3.7h-2.8v-4c0-.3,0-.5,0-.6,0-.2-.2-.3-.3-.4-.1-.1-.3-.2-.5-.2-.3,0-.6.1-.8.4-.2.2-.3.6-.3,1.2v3.7h-2.8v-7.3Z" style="fill: #fff;"/>
    <path d="m165.8,475.8h2.6v1.1c.4-.4.8-.8,1.1-.9.4-.2.8-.3,1.4-.3s1,.1,1.4.3c.3.2.6.5.8.9.4-.5.8-.8,1.2-1,.4-.2.8-.3,1.3-.3.8,0,1.4.2,1.8.7.4.5.7,1.2.7,2.2v4.6h-2.8v-4.1c0-.3,0-.6-.2-.7-.2-.3-.4-.4-.7-.4s-.6.1-.8.4-.3.6-.3,1.1v3.7h-2.8v-4c0-.3,0-.5,0-.6,0-.2-.2-.3-.3-.4-.1-.1-.3-.2-.5-.2-.3,0-.6.1-.8.4-.2.2-.3.6-.3,1.2v3.7h-2.8v-7.3Z" style="fill: #fff;"/>
    <path d="m184,478.4h-4.9c0-.5.2-.9.5-1.4.3-.4.8-.9,1.6-1.5.5-.4.8-.6.9-.8.1-.2.2-.4.2-.5s0-.3-.2-.5c-.1-.1-.3-.2-.5-.2s-.4,0-.5.2c-.1.1-.2.4-.3.7h-1.6c0-.6.2-.9.4-1.2.2-.3.4-.5.7-.6.3-.1.7-.2,1.3-.2s1,0,1.3.2c.3.1.6.3.7.6.2.3.3.6.3.9s-.1.7-.3,1-.6.7-1.1,1.1c-.3.2-.5.4-.7.5-.1,0-.2.2-.4.4h2.5v1.3Z" style="fill: #fff;"/>
    <path d="m190.1,473.1h5.8c1,0,1.7.2,2.2.7s.8,1.1.8,1.8-.2,1.1-.6,1.5c-.2.3-.6.5-1.1.7.7.2,1.2.5,1.6.9.3.4.5,1,.5,1.6s-.1,1-.4,1.4-.6.7-1,1c-.3.2-.7.3-1.2.3-.7,0-1.2.1-1.4.1h-5.3v-10Zm3.1,3.9h1.3c.5,0,.8,0,1-.2.2-.2.3-.4.3-.7s0-.5-.3-.7-.5-.2-1-.2h-1.4v1.9Zm0,3.9h1.6c.5,0,.9,0,1.1-.3.2-.2.3-.4.3-.8s-.1-.5-.3-.7c-.2-.2-.6-.3-1.1-.3h-1.6v2Z" style="fill: #fff;"/>
    <path d="m208.4,483.1h-2.6v-1.2c-.4.5-.8.8-1.2,1s-.9.3-1.5.3-1.4-.2-1.8-.7c-.4-.5-.7-1.2-.7-2.1v-4.6h2.8v4c0,.5,0,.8.3,1s.4.3.7.3.6-.1.8-.4.3-.7.3-1.4v-3.5h2.8v7.3Z" style="fill: #fff;"/>
    <path d="m210.2,473.1h2.8v1.9h-2.8v-1.9Zm0,2.8h2.8v7.3h-2.8v-7.3Z" style="fill: #fff;"/>
    <path d="m214.9,473.1h2.8v10h-2.8v-10Z" style="fill: #fff;"/>
    <path d="m227.1,473.1v10h-2.6v-1.1c-.4.5-.7.8-1,.9-.4.2-.8.3-1.3.3-1,0-1.7-.4-2.3-1.1-.5-.8-.8-1.7-.8-2.7s.3-2.1.9-2.8c.6-.6,1.3-1,2.2-1s.8,0,1.2.2c.4.1.7.4.9.7v-3.5h2.8Zm-2.8,6.4c0-.6-.1-1-.4-1.3-.2-.3-.5-.4-.9-.4s-.6.1-.8.4-.3.7-.3,1.4.1,1,.3,1.3c.2.3.5.4.8.4s.7-.1.9-.4.4-.7.4-1.4Z" style="fill: #fff;"/>
    <path d="m233.6,473.1h5.1c1.1,0,2,.3,2.5.8.6.5.8,1.3.8,2.3s-.3,1.8-.9,2.4c-.6.6-1.5.9-2.8.9h-1.7v3.7h-3.1v-10Zm3.1,4.3h.8c.6,0,1-.1,1.3-.3.2-.2.4-.5.4-.8s-.1-.6-.3-.8-.6-.3-1.2-.3h-.9v2.2Z" style="fill: #fff;"/>
    <path d="m243.7,473.1h2.8v10h-2.8v-10Z" style="fill: #fff;"/>
    <path d="m250.8,478.2l-2.7-.3c.1-.5.2-.8.4-1.1.2-.3.5-.5.8-.7.3-.1.6-.3,1.1-.3s.9-.1,1.4-.1c.8,0,1.5,0,2,.1.5,0,.9.3,1.3.6.2.2.4.5.6.9.1.4.2.7.2,1.1v3.2c0,.3,0,.6,0,.8,0,.2.1.4.3.7h-2.6c-.1-.2-.2-.3-.2-.4,0,0,0-.3,0-.5-.4.4-.7.6-1.1.8-.5.2-1.1.3-1.7.3s-1.5-.2-2-.6c-.4-.4-.7-.9-.7-1.5s.2-1,.5-1.4.9-.6,1.8-.8c1-.2,1.7-.4,2-.4.3,0,.6-.2,1-.3,0-.3,0-.6-.2-.7s-.4-.2-.7-.2-.8,0-1,.2c-.2.1-.3.3-.4.6Zm2.4,1.5c-.4.1-.8.3-1.2.4-.6.2-.9.3-1.1.4-.2.2-.2.3-.2.5s0,.4.2.5c.2.1.4.2.7.2s.6,0,.9-.2c.3-.2.5-.3.6-.5.1-.2.2-.5.2-.8v-.4Z" style="fill: #fff;"/>
    <path d="m260.7,473.1v2.8h1.5v2h-1.5v2.6c0,.3,0,.5,0,.6,0,.2.3.2.5.2s.5,0,.9-.2l.2,1.9c-.7.2-1.3.2-1.9.2s-1.2,0-1.5-.3c-.3-.2-.6-.4-.7-.8-.2-.4-.2-.9-.2-1.8v-2.6h-1v-2h1v-1.3l2.8-1.4Z" style="fill: #fff;"/>
    <path d="m271.6,480.2h-5.6c0,.4.2.8.4,1,.3.3.6.5,1.1.5s.5,0,.8-.2c.2,0,.3-.2.5-.5l2.7.3c-.4.7-.9,1.3-1.5,1.6-.6.3-1.4.5-2.5.5s-1.7-.1-2.3-.4c-.6-.3-1-.7-1.4-1.3-.4-.6-.5-1.3-.5-2.1,0-1.1.4-2.1,1.1-2.8.7-.7,1.7-1.1,3-1.1s1.9.2,2.5.5,1.1.8,1.4,1.4.5,1.4.5,2.3v.3Zm-2.8-1.3c0-.5-.2-.9-.4-1.2-.2-.2-.5-.3-.9-.3s-.8.2-1.1.5c-.2.2-.3.5-.3,1h2.7Z" style="fill: #fff;"/>
    <path d="m282.5,473.1h1.7v12.8h-1.7v-12.8Z" style="fill: #fff;"/>
    <path d="m301.5,472.9v10.2h-2.8v-6.7c-.5.3-.9.6-1.3.8-.4.2-1,.4-1.6.6v-2.3c.9-.3,1.7-.7,2.2-1.1s.9-1,1.2-1.6h2.3Z" style="fill: #fff;"/>
    <path d="m304.5,478.1c0-1.9.3-3.2,1-4,.7-.8,1.7-1.1,3.1-1.1s1.2,0,1.7.2c.4.2.8.4,1.1.7.3.3.5.5.6.8.2.3.3.6.4,1,.2.7.3,1.5.3,2.3,0,1.8-.3,3.1-.9,4s-1.7,1.3-3.2,1.3-1.5-.1-2-.4-.9-.7-1.3-1.2c-.2-.4-.4-.9-.6-1.5-.1-.6-.2-1.3-.2-2.1Zm2.8,0c0,1.3.1,2.1.3,2.6.2.5.6.7,1,.7s.5,0,.7-.3c.2-.2.4-.5.5-.9,0-.4.1-1.1.1-2,0-1.3-.1-2.2-.3-2.7-.2-.5-.6-.7-1-.7s-.8.2-1,.7c-.2.5-.3,1.3-.3,2.6Z" style="fill: #fff;"/>
    <path d="m314.1,475.8h2.6v1.1c.4-.4.8-.8,1.1-.9s.8-.3,1.4-.3,1,.1,1.4.3.6.5.8.9c.4-.5.8-.8,1.2-1,.4-.2.8-.3,1.3-.3.8,0,1.4.2,1.8.7.4.5.7,1.2.7,2.2v4.6h-2.8v-4.1c0-.3,0-.6-.2-.7-.2-.3-.4-.4-.7-.4s-.6.1-.8.4-.3.6-.3,1.1v3.7h-2.8v-4c0-.3,0-.5,0-.6,0-.2-.2-.3-.3-.4-.1-.1-.3-.2-.5-.2-.3,0-.6.1-.8.4s-.3.6-.3,1.2v3.7h-2.8v-7.3Z" style="fill: #fff;"/>
    <path d="m328.1,475.8h2.6v1.1c.4-.4.8-.8,1.1-.9s.8-.3,1.4-.3,1,.1,1.4.3.6.5.8.9c.4-.5.8-.8,1.2-1,.4-.2.8-.3,1.3-.3.8,0,1.4.2,1.8.7.4.5.7,1.2.7,2.2v4.6h-2.8v-4.1c0-.3,0-.6-.2-.7-.2-.3-.4-.4-.7-.4s-.6.1-.8.4-.3.6-.3,1.1v3.7h-2.8v-4c0-.3,0-.5,0-.6,0-.2-.2-.3-.3-.4-.1-.1-.3-.2-.5-.2-.3,0-.6.1-.8.4s-.3.6-.3,1.2v3.7h-2.8v-7.3Z" style="fill: #fff;"/>
    <path d="m346.4,478.4h-4.9c0-.5.2-.9.5-1.4.3-.4.8-.9,1.6-1.5.5-.4.8-.6.9-.8.1-.2.2-.4.2-.5s0-.3-.2-.5c-.1-.1-.3-.2-.5-.2s-.4,0-.5.2c-.1.1-.2.4-.3.7h-1.6c0-.6.2-.9.4-1.2.2-.3.4-.5.7-.6.3-.1.7-.2,1.3-.2s1,0,1.3.2c.3.1.6.3.7.6.2.3.3.6.3.9s-.1.7-.3,1c-.2.3-.6.7-1.1,1.1-.3.2-.5.4-.7.5-.1,0-.2.2-.4.4h2.5v1.3Z" style="fill: #fff;"/>
    <path d="m357.4,479.5v-2.1h4.8v4.3c-.9.6-1.7,1-2.4,1.3-.7.2-1.5.3-2.5.3s-2.2-.2-2.9-.6c-.7-.4-1.3-1-1.7-1.8-.4-.8-.6-1.7-.6-2.8s.2-2,.7-2.9c.5-.8,1.1-1.4,2-1.8.7-.3,1.6-.5,2.7-.5s1.9.1,2.5.3c.5.2,1,.5,1.4.9.4.4.6,1,.8,1.6l-3,.5c-.1-.4-.3-.7-.6-.9-.3-.2-.7-.3-1.1-.3-.7,0-1.2.2-1.6.7-.4.5-.6,1.2-.6,2.2s.2,1.9.6,2.3c.4.5,1,.7,1.7.7s.7,0,1-.2.7-.3,1.1-.5v-.9h-2.1Z" style="fill: #fff;"/>
    <path d="m363.9,475.8h2.6v1.2c.3-.5.5-.9.8-1.1.3-.2.6-.3,1-.3s.9.1,1.3.4l-.9,2c-.3-.1-.6-.2-.8-.2-.4,0-.6.2-.8.5-.3.4-.4,1.2-.4,2.4v2.4h-2.8v-7.3Z" style="fill: #fff;"/>
    <path d="m370.2,473.1h2.8v1.9h-2.8v-1.9Zm0,2.8h2.8v7.3h-2.8v-7.3Z" style="fill: #fff;"/>
    <path d="m382.4,473.1v10h-2.6v-1.1c-.4.5-.7.8-1,.9-.4.2-.8.3-1.3.3-1,0-1.7-.4-2.3-1.1-.5-.8-.8-1.7-.8-2.7s.3-2.1.9-2.8c.6-.6,1.3-1,2.2-1s.8,0,1.2.2c.4.1.7.4.9.7v-3.5h2.8Zm-2.8,6.4c0-.6-.1-1-.4-1.3-.2-.3-.5-.4-.9-.4s-.6.1-.8.4-.3.7-.3,1.4.1,1,.3,1.3c.2.3.5.4.8.4s.7-.1.9-.4.4-.7.4-1.4Z" style="fill: #fff;"/>
  </g>
  <g>
    <rect x="-2.8" y="-2.8" width="510.2" height="510.2" style="fill: none; stroke: #fff; stroke-miterlimit: 10; stroke-width: .2px;"/>
    <line x1="400" y1="479.1" x2="507.4" y2="479.1" style="fill: none; stroke: #fff; stroke-miterlimit: 10; stroke-width: .2px;"/>
    <line x1="60.2" y1="479.1" x2="104.6" y2="479.1" style="fill: none; stroke: #fff; stroke-miterlimit: 10; stroke-width: .2px;"/>
    <line x1="-2.8" y1="479.1" x2="19.5" y2="479.1" style="fill: none; stroke: #fff; stroke-miterlimit: 10; stroke-width: .2px;"/>
    <line x1="-2.8" y1="450.7" x2="507.4" y2="450.7" style="fill: none; stroke: #fff; stroke-miterlimit: 10; stroke-width: .2px;"/>
    <line x1="-2.8" y1="422.4" x2="507.4" y2="422.4" style="fill: none; stroke: #fff; stroke-miterlimit: 10; stroke-width: .2px;"/>
    <line x1="-2.8" y1="394" x2="507.4" y2="394" style="fill: none; stroke: #fff; stroke-miterlimit: 10; stroke-width: .2px;"/>
    <line x1="-2.8" y1="365.7" x2="507.4" y2="365.7" style="fill: none; stroke: #fff; stroke-miterlimit: 10; stroke-width: .2px;"/>
    <line x1="-2.8" y1="337.3" x2="507.4" y2="337.3" style="fill: none; stroke: #fff; stroke-miterlimit: 10; stroke-width: .2px;"/>
    <line x1="-2.8" y1="309" x2="507.4" y2="309" style="fill: none; stroke: #fff; stroke-miterlimit: 10; stroke-width: .2px;"/>
    <line x1="-2.8" y1="280.6" x2="507.4" y2="280.6" style="fill: none; stroke: #fff; stroke-miterlimit: 10; stroke-width: .2px;"/>
    <line x1="-2.8" y1="252.3" x2="507.4" y2="252.3" style="fill: none; stroke: #fff; stroke-miterlimit: 10; stroke-width: .2px;"/>
    <line x1="-2.8" y1="223.9" x2="507.4" y2="223.9" style="fill: none; stroke: #fff; stroke-miterlimit: 10; stroke-width: .2px;"/>
    <line x1="-2.8" y1="195.6" x2="507.4" y2="195.6" style="fill: none; stroke: #fff; stroke-miterlimit: 10; stroke-width: .2px;"/>
    <line x1="-2.8" y1="167.2" x2="507.4" y2="167.2" style="fill: none; stroke: #fff; stroke-miterlimit: 10; stroke-width: .2px;"/>
    <line x1="-2.8" y1="138.9" x2="507.4" y2="138.9" style="fill: none; stroke: #fff; stroke-miterlimit: 10; stroke-width: .2px;"/>
    <line x1="-2.8" y1="110.6" x2="507.4" y2="110.6" style="fill: none; stroke: #fff; stroke-miterlimit: 10; stroke-width: .2px;"/>
    <line x1="-2.8" y1="82.2" x2="507.4" y2="82.2" style="fill: none; stroke: #fff; stroke-miterlimit: 10; stroke-width: .2px;"/>
    <line x1="-2.8" y1="53.9" x2="507.4" y2="53.9" style="fill: none; stroke: #fff; stroke-miterlimit: 10; stroke-width: .2px;"/>
    <line x1="-2.8" y1="25.5" x2="507.4" y2="25.5" style="fill: none; stroke: #fff; stroke-miterlimit: 10; stroke-width: .2px;"/>
    <line x1="479.1" y1="-2.8" x2="479.1" y2="507.4" style="fill: none; stroke: #fff; stroke-miterlimit: 10; stroke-width: .2px;"/>
    <line x1="450.7" y1="-2.8" x2="450.7" y2="507.4" style="fill: none; stroke: #fff; stroke-miterlimit: 10; stroke-width: .2px;"/>
    <line x1="422.4" y1="-2.8" x2="422.4" y2="507.4" style="fill: none; stroke: #fff; stroke-miterlimit: 10; stroke-width: .2px;"/>
    <line x1="394" y1="497.7" x2="394" y2="507.4" style="fill: none; stroke: #fff; stroke-miterlimit: 10; stroke-width: .2px;"/>
    <line x1="394" y1="-2.8" x2="394" y2="460.3" style="fill: none; stroke: #fff; stroke-miterlimit: 10; stroke-width: .2px;"/>
    <line x1="365.7" y1="499.4" x2="365.7" y2="507.4" style="fill: none; stroke: #fff; stroke-miterlimit: 10; stroke-width: .2px;"/>
    <line x1="365.7" y1="-2.8" x2="365.7" y2="458.7" style="fill: none; stroke: #fff; stroke-miterlimit: 10; stroke-width: .2px;"/>
    <line x1="337.3" y1="499.4" x2="337.3" y2="507.4" style="fill: none; stroke: #fff; stroke-miterlimit: 10; stroke-width: .2px;"/>
    <line x1="337.3" y1="-2.8" x2="337.3" y2="458.7" style="fill: none; stroke: #fff; stroke-miterlimit: 10; stroke-width: .2px;"/>
    <line x1="309" y1="499.4" x2="309" y2="507.4" style="fill: none; stroke: #fff; stroke-miterlimit: 10; stroke-width: .2px;"/>
    <line x1="309" y1="-2.8" x2="309" y2="458.7" style="fill: none; stroke: #fff; stroke-miterlimit: 10; stroke-width: .2px;"/>
    <line x1="280.6" y1="499.4" x2="280.6" y2="507.4" style="fill: none; stroke: #fff; stroke-miterlimit: 10; stroke-width: .2px;"/>
    <line x1="280.6" y1="-2.8" x2="280.6" y2="458.7" style="fill: none; stroke: #fff; stroke-miterlimit: 10; stroke-width: .2px;"/>
    <line x1="252.3" y1="499.4" x2="252.3" y2="507.4" style="fill: none; stroke: #fff; stroke-miterlimit: 10; stroke-width: .2px;"/>
    <line x1="252.3" y1="-2.8" x2="252.3" y2="458.7" style="fill: none; stroke: #fff; stroke-miterlimit: 10; stroke-width: .2px;"/>
    <line x1="223.9" y1="499.4" x2="223.9" y2="507.4" style="fill: none; stroke: #fff; stroke-miterlimit: 10; stroke-width: .2px;"/>
    <line x1="223.9" y1="-2.8" x2="223.9" y2="458.7" style="fill: none; stroke: #fff; stroke-miterlimit: 10; stroke-width: .2px;"/>
    <line x1="195.6" y1="499.4" x2="195.6" y2="507.4" style="fill: none; stroke: #fff; stroke-miterlimit: 10; stroke-width: .2px;"/>
    <line x1="195.6" y1="-2.8" x2="195.6" y2="458.7" style="fill: none; stroke: #fff; stroke-miterlimit: 10; stroke-width: .2px;"/>
    <line x1="167.2" y1="499.4" x2="167.2" y2="507.4" style="fill: none; stroke: #fff; stroke-miterlimit: 10; stroke-width: .2px;"/>
    <line x1="167.2" y1="-2.8" x2="167.2" y2="458.7" style="fill: none; stroke: #fff; stroke-miterlimit: 10; stroke-width: .2px;"/>
    <line x1="138.9" y1="499.4" x2="138.9" y2="507.4" style="fill: none; stroke: #fff; stroke-miterlimit: 10; stroke-width: .2px;"/>
    <line x1="138.9" y1="-2.8" x2="138.9" y2="458.7" style="fill: none; stroke: #fff; stroke-miterlimit: 10; stroke-width: .2px;"/>
    <line x1="110.6" y1="497.8" x2="110.6" y2="507.4" style="fill: none; stroke: #fff; stroke-miterlimit: 10; stroke-width: .2px;"/>
    <line x1="110.6" y1="-2.8" x2="110.6" y2="460.3" style="fill: none; stroke: #fff; stroke-miterlimit: 10; stroke-width: .2px;"/>
    <line x1="82.2" y1="-2.8" x2="82.2" y2="507.4" style="fill: none; stroke: #fff; stroke-miterlimit: 10; stroke-width: .2px;"/>
    <line x1="53.9" y1="497.9" x2="53.9" y2="507.4" style="fill: none; stroke: #fff; stroke-miterlimit: 10; stroke-width: .2px;"/>
    <line x1="53.9" y1="-2.8" x2="53.9" y2="460.1" style="fill: none; stroke: #fff; stroke-miterlimit: 10; stroke-width: .2px;"/>
    <line x1="25.5" y1="497.7" x2="25.5" y2="507.4" style="fill: none; stroke: #fff; stroke-miterlimit: 10; stroke-width: .2px;"/>
    <line x1="25.5" y1="-2.8" x2="25.5" y2="460.4" style="fill: none; stroke: #fff; stroke-miterlimit: 10; stroke-width: .2px;"/>
  </g>
  <rect x="19.5" y="458.7" width="40.7" height="40.7" rx="12" ry="12" style="fill: none; stroke: #fff; stroke-miterlimit: 10; stroke-width: .8px;"/>
  <path d="m41.5,493.2c.8-.9,1.3-1.5,1.6-1.7.3-.3.4-.4.5-.4s.1,0,.2.1c0,0,.1.1.1.2s-.1.2-.3.4c-.3.3-.6.6-1.1,1.1-.4.5-.7.7-.7.8s0,0,0,.2c0,0,.2.3.5.6.2.3.4.5.5.6.1.1.3.2.4.3.1,0,.2.2.3.3,0,.1.1.2.1.2,0,0,0,.1,0,.2,0,0-.1,0-.2,0-.2,0-.4-.1-.6-.3s-.6-.7-1.1-1.3c-.1-.1-.2-.3-.3-.4,0,0-.1.2-.2.3-.9.9-1.3,1.4-1.4,1.7,0,.3-.2.4-.2.5s-.2.1-.4.1-.3,0-.3-.3c0-.3.6-1.1,1.9-2.4.2-.2.3-.3.3-.3s0-.1-.2-.4c-.8-1-1.2-1.6-1.2-1.7s0-.2,0-.3.1-.1.2-.1c.1,0,.3.1.4.4.2.5.6,1.1,1.2,1.7Z" style="fill: #fff;"/>
  <path d="m24.6,477.2c-.2-.2-.4-.5-.7-.9-.2-.3-.4-.5-.5-.6s-.2-.2-.4-.3c-.2-.2-.3-.3-.4-.4,0,0,0-.1,0-.2s0,0,.1-.1.1,0,.2,0c.1,0,.3.1.6.3.2.2.4.4.6.7.6.7.9,1.1,1,1.2.1-.1.3-.3.4-.5.8-.8,1.2-1.3,1.4-1.5.2-.3.4-.4.5-.4s.1,0,.2,0c0,0,0,.1,0,.2s0,.2-.3.4c-.2.2-.6.7-1.4,1.5-.4.4-.6.6-.6.7,0,.1-.1.4-.2.9s0,.9-.1,1.2c0,.2,0,.3,0,.3s0,0-.1,0c0,0-.1,0-.2,0-.2,0-.3-.1-.3-.4s0-.5.1-.9c0-.4.1-.7.1-.9s0-.2,0-.3Z" style="fill: #fff;"/>
  <line x1="29.1" y1="464.4" x2="29.1" y2="489.9" style="fill: none; stroke: #fff; stroke-linecap: round; stroke-miterlimit: 10;"/>
  <line x1="29.1" y1="489.9" x2="54.6" y2="489.9" style="fill: none; stroke: #fff; stroke-linecap: round; stroke-miterlimit: 10;"/>
</svg>