<?xml version="1.0" encoding="UTF-8"?>
<svg id="a" xmlns="http://www.w3.org/2000/svg" width="504.6" height="504.6" viewBox="0 0 504.6 504.6">
  <g>
    <polyline points="58.6 426.2 78.3 426.2 117 426.2 155.7 426.2 194.3 426.2 233 426.2 271.6 426.2 310.3 426.2 348.9 426.2 387.6 426.2 426.2 426.2 446.9 426.2" style="fill: none; stroke: #fff; stroke-miterlimit: 10; stroke-width: .5px;"/>
    <line x1="446.9" y1="387.6" x2="426.2" y2="387.6" style="fill: none; stroke: #fff; stroke-miterlimit: 10; stroke-width: .5px;"/>
    <line x1="78.3" y1="387.6" x2="58.6" y2="387.6" style="fill: none; stroke: #fff; stroke-miterlimit: 10; stroke-width: .5px;"/>
    <polyline points="446.9 348.9 426.2 348.9 387.6 348.9 348.9 348.9 310.3 348.9 271.6 348.9 233 348.9 194.3 348.9 155.7 348.9 117 348.9 78.3 348.9 58.6 348.9" style="fill: none; stroke: #fff; stroke-miterlimit: 10; stroke-width: .5px;"/>
    <polyline points="58.6 310.3 78.3 310.3 117 310.3 155.7 310.3 194.3 310.3 233 310.3 271.6 310.3 310.3 310.3 348.9 310.3 387.6 310.3 426.2 310.3 446.9 310.3" style="fill: none; stroke: #fff; stroke-miterlimit: 10; stroke-width: .5px;"/>
    <polyline points="446.9 271.6 426.2 271.6 387.6 271.6" style="fill: none; stroke: #fff; stroke-miterlimit: 10; stroke-width: .5px;"/>
    <line x1="78.3" y1="271.6" x2="58.6" y2="271.6" style="fill: none; stroke: #fff; stroke-miterlimit: 10; stroke-width: .5px;"/>
    <polyline points="446.9 233 426.2 233 387.6 233" style="fill: none; stroke: #fff; stroke-miterlimit: 10; stroke-width: .5px;"/>
    <line x1="78.3" y1="233" x2="58.6" y2="233" style="fill: none; stroke: #fff; stroke-miterlimit: 10; stroke-width: .5px;"/>
    <rect x="117" y="194.3" width="270.6" height="77.3" style="fill: none; stroke: #fff; stroke-miterlimit: 10; stroke-width: .5px;"/>
    <polyline points="446.9 194.3 426.2 194.3 387.6 194.3" style="fill: none; stroke: #fff; stroke-miterlimit: 10; stroke-width: .5px;"/>
    <polyline points="117 194.3 78.3 194.3 58.6 194.3" style="fill: none; stroke: #fff; stroke-miterlimit: 10; stroke-width: .5px;"/>
    <polyline points="58.6 155.7 78.3 155.7 117 155.7 155.7 155.7 194.3 155.7 233 155.7 271.6 155.7 310.3 155.7 348.9 155.7 387.6 155.7 426.2 155.7 446.9 155.7" style="fill: none; stroke: #fff; stroke-miterlimit: 10; stroke-width: .5px;"/>
    <polyline points="58.6 117 78.3 117 117 117 155.7 117 194.3 117 233 117 271.6 117 310.3 117 348.9 117 387.6 117 426.2 117 446.9 117" style="fill: none; stroke: #fff; stroke-miterlimit: 10; stroke-width: .5px;"/>
    <polyline points="446.9 78.3 426.2 78.3 387.6 78.3 348.9 78.3 310.3 78.3 271.6 78.3 233 78.3 194.3 78.3 155.7 78.3 117 78.3 78.3 78.3 58.6 78.3" style="fill: none; stroke: #fff; stroke-miterlimit: 10; stroke-width: .5px;"/>
    <polyline points="426.2 58.1 426.2 78.3 426.2 117 426.2 155.7 426.2 194.3 426.2 233 426.2 271.6 426.2 310.3 426.2 348.9 426.2 377.6 426.2 387.6 426.2 398.1 426.2 426.2 426.2 445.8" style="fill: none; stroke: #fff; stroke-miterlimit: 10; stroke-width: .5px;"/>
    <polyline points="387.6 58.1 387.6 78.3 387.6 117 387.6 155.7 387.6 194.3" style="fill: none; stroke: #fff; stroke-miterlimit: 10; stroke-width: .5px;"/>
    <polyline points="387.6 410.1 387.6 426.2 387.6 445.8" style="fill: none; stroke: #fff; stroke-miterlimit: 10; stroke-width: .5px;"/>
    <polyline points="387.6 365.6 387.6 348.9 387.6 310.3 387.6 271.6" style="fill: none; stroke: #fff; stroke-miterlimit: 10; stroke-width: .5px;"/>
    <polyline points="348.9 410.1 348.9 426.2 348.9 445.8" style="fill: none; stroke: #fff; stroke-miterlimit: 10; stroke-width: .5px;"/>
    <polyline points="348.9 365.6 348.9 348.9 348.9 310.3 348.9 271.6" style="fill: none; stroke: #fff; stroke-miterlimit: 10; stroke-width: .5px;"/>
    <polyline points="348.9 194.3 348.9 155.7 348.9 117 348.9 78.3 348.9 58.1" style="fill: none; stroke: #fff; stroke-miterlimit: 10; stroke-width: .5px;"/>
    <polyline points="310.3 410.1 310.3 426.2 310.3 445.8" style="fill: none; stroke: #fff; stroke-miterlimit: 10; stroke-width: .5px;"/>
    <polyline points="310.3 365.6 310.3 348.9 310.3 310.3 310.3 271.6" style="fill: none; stroke: #fff; stroke-miterlimit: 10; stroke-width: .5px;"/>
    <polyline points="310.3 194.3 310.3 155.7 310.3 117 310.3 78.3 310.3 58.1" style="fill: none; stroke: #fff; stroke-miterlimit: 10; stroke-width: .5px;"/>
    <polyline points="271.6 410.1 271.6 426.2 271.6 445.8" style="fill: none; stroke: #fff; stroke-miterlimit: 10; stroke-width: .5px;"/>
    <polyline points="271.6 365.6 271.6 348.9 271.6 310.3 271.6 271.6" style="fill: none; stroke: #fff; stroke-miterlimit: 10; stroke-width: .5px;"/>
    <polyline points="271.6 194.3 271.6 155.7 271.6 117 271.6 78.3 271.6 58.1" style="fill: none; stroke: #fff; stroke-miterlimit: 10; stroke-width: .5px;"/>
    <polyline points="233 410.1 233 426.2 233 445.8" style="fill: none; stroke: #fff; stroke-miterlimit: 10; stroke-width: .5px;"/>
    <polyline points="233 365.6 233 348.9 233 310.3 233 271.6" style="fill: none; stroke: #fff; stroke-miterlimit: 10; stroke-width: .5px;"/>
    <polyline points="233 194.3 233 155.7 233 117 233 78.3 233 58.1" style="fill: none; stroke: #fff; stroke-miterlimit: 10; stroke-width: .5px;"/>
    <polyline points="194.3 58.1 194.3 78.3 194.3 117 194.3 155.7 194.3 194.3" style="fill: none; stroke: #fff; stroke-miterlimit: 10; stroke-width: .5px;"/>
    <polyline points="194.3 271.6 194.3 310.3 194.3 348.9 194.3 365.6" style="fill: none; stroke: #fff; stroke-miterlimit: 10; stroke-width: .5px;"/>
    <polyline points="194.3 445.8 194.3 426.2 194.3 410.1" style="fill: none; stroke: #fff; stroke-miterlimit: 10; stroke-width: .5px;"/>
    <polyline points="155.7 410.1 155.7 426.2 155.7 445.8" style="fill: none; stroke: #fff; stroke-miterlimit: 10; stroke-width: .5px;"/>
    <polyline points="155.7 365.6 155.7 348.9 155.7 310.3 155.7 271.6" style="fill: none; stroke: #fff; stroke-miterlimit: 10; stroke-width: .5px;"/>
    <polyline points="155.7 194.3 155.7 155.7 155.7 117 155.7 78.3 155.7 58.1" style="fill: none; stroke: #fff; stroke-miterlimit: 10; stroke-width: .5px;"/>
    <polyline points="117 271.6 117 310.3 117 348.9 117 365.6" style="fill: none; stroke: #fff; stroke-miterlimit: 10; stroke-width: .5px;"/>
    <polyline points="117 445.8 117 426.2 117 410.1" style="fill: none; stroke: #fff; stroke-miterlimit: 10; stroke-width: .5px;"/>
    <polyline points="117 194.3 117 155.7 117 117 117 78.3 117 58.1" style="fill: none; stroke: #fff; stroke-miterlimit: 10; stroke-width: .5px;"/>
    <rect x="78.3" y="233" width="38.6" height="38.7" style="fill: none; stroke: #fff; stroke-miterlimit: 10; stroke-width: .5px;"/>
    <polyline points="78.3 58.1 78.3 78.3 78.3 117 78.3 155.7 78.3 194.3 78.3 233" style="fill: none; stroke: #fff; stroke-miterlimit: 10; stroke-width: .5px;"/>
    <polyline points="78.3 445.8 78.3 426.2 78.3 398.1 78.3 387.6 78.3 377.6 78.3 348.9 78.3 310.3 78.3 271.6" style="fill: none; stroke: #fff; stroke-miterlimit: 10; stroke-width: .5px;"/>
  </g>
  <g>
    <path d="m132.3,208.7h8.8v10.8l9.3-10.8h11.8l-10.4,10.8,10.9,17.8h-10.9l-6-11.8-4.6,4.8v7h-8.8v-28.6h-.1Z" style="fill: #ff7735;"/>
    <path d="m165.9,208.7h8.9v28.6h-8.9v-28.6Z" style="fill: #ff7735;"/>
    <path d="m181.2,208.7h8.3l10.8,15.8v-15.8h8.3v28.6h-8.3l-10.7-15.7v15.7h-8.3v-28.6h-.1Z" style="fill: #ff7735;"/>
    <path d="m228.9,227v-6h13.7v12.2c-2.6,1.8-4.9,3-6.9,3.6s-4.4,1-7.2,1-6.2-.6-8.3-1.7c-2.1-1.2-3.8-2.9-5-5.2s-1.8-4.9-1.8-7.9.6-5.8,1.9-8.2c1.3-2.3,3.2-4.1,5.7-5.3,1.9-.9,4.6-1.4,7.8-1.4s5.5.3,7.1.9c1.6.6,2.9,1.5,3.9,2.7s1.8,2.7,2.3,4.6l-8.5,1.5c-.4-1.1-.9-1.9-1.8-2.5-.8-.6-1.9-.9-3.2-.9-1.9,0-3.5.7-4.6,2s-1.7,3.5-1.7,6.4.6,5.3,1.7,6.6,2.8,2,4.9,2,1.9,0,2.8-.4c.9-.3,1.9-.8,3.1-1.5v-2.7h-5.9v.2h0Z" style="fill: #ff7735;"/>
    <path d="m247.9,237.3v-28.6h14.7c2.7,0,4.8.2,6.3.7s2.6,1.3,3.5,2.6,1.3,2.8,1.3,4.6-.3,3-1,4.1-1.6,2.1-2.8,2.8c-.8.5-1.8.8-3.1,1.1,1.1.4,1.8.7,2.3,1.1.3.2.8.7,1.4,1.5s1,1.4,1.2,1.8l4.3,8.3h-10l-4.7-8.8c-.6-1.1-1.1-1.9-1.6-2.2-.6-.4-1.4-.7-2.2-.7h-.8v11.6h-8.9.1Zm8.9-17h3.7c.4,0,1.2,0,2.3-.4.6,0,1.1-.4,1.4-.9.4-.5.6-1,.6-1.7s-.3-1.6-.9-2.1-1.7-.7-3.3-.7h-3.9v5.8h0Z" style="fill: #ff7735;"/>
    <path d="m277.1,223c0-4.7,1.3-8.3,3.9-10.9,2.6-2.6,6.2-3.9,10.9-3.9s8.4,1.3,11,3.8,3.9,6.1,3.9,10.8-.6,6.1-1.7,8.2c-1.1,2.1-2.8,3.8-4.9,5s-4.8,1.8-8,1.8-5.9-.5-8-1.5-3.8-2.7-5.1-4.9c-1.3-2.2-2-5-2-8.4h0Zm8.8,0c0,2.9.5,5,1.6,6.2,1.1,1.3,2.5,1.9,4.4,1.9s3.4-.6,4.4-1.9c1-1.2,1.6-3.5,1.6-6.7s-.5-4.7-1.6-5.9-2.6-1.9-4.4-1.9-3.2.6-4.3,1.9c-1.1,1.3-1.6,3.4-1.6,6.3h-.1Z" style="fill: #ff7735;"/>
    <path d="m310.4,223c0-4.7,1.3-8.3,3.9-10.9,2.6-2.6,6.2-3.9,10.9-3.9s8.4,1.3,11,3.8,3.9,6.1,3.9,10.8-.6,6.1-1.7,8.2c-1.1,2.1-2.8,3.8-4.9,5s-4.8,1.8-8,1.8-5.9-.5-8-1.5-3.8-2.7-5.1-4.9c-1.3-2.2-2-5-2-8.4h0Zm8.8,0c0,2.9.5,5,1.6,6.2,1.1,1.3,2.5,1.9,4.4,1.9s3.4-.6,4.4-1.9c1-1.2,1.6-3.5,1.6-6.7s-.5-4.7-1.6-5.9-2.6-1.9-4.4-1.9-3.2.6-4.3,1.9c-1.1,1.3-1.6,3.4-1.6,6.3h-.1Z" style="fill: #ff7735;"/>
    <path d="m344.9,208.7h8.3l10.8,15.8v-15.8h8.3v28.6h-8.3l-10.7-15.7v15.7h-8.3v-28.6h0Z" style="fill: #ff7735;"/>
  </g>
  <g>
    <path d="m166.8,253l1.9-.2c0,.5.2.9.4,1.1s.5.3.8.3.8-.2,1.1-.5.4-.7.4-1.2,0-.7-.4-1-.6-.4-1-.4-.2,0-.3,0l.3-1.6h.2c.5,0,.9,0,1.2-.4s.4-.6.4-1.1,0-.6-.3-.8-.4-.3-.7-.3-.5,0-.8.3-.4.6-.5,1.1l-1.8-.4c.2-.7.5-1.3,1-1.7.6-.6,1.4-.9,2.3-.9s1.6.3,2.1.8.7,1.1.7,1.8-.2,1-.5,1.4-.7.7-1.3.9c.4.2.7.5.9.9s.3.7.3,1.1c0,.7-.3,1.4-.8,2-.7.8-1.6,1.3-2.8,1.3s-1.5-.2-2.1-.7c-.5-.5-.9-1.2-1-2.1l.3.3h0Z" style="fill: #ff7735;"/>
    <path d="m174.5,255.7l2.1-10h4.1c.4,0,.8,0,1.1.3s.6.3.9.5.5.5.7.8.3.7.4,1.1.2.9.2,1.4c0,1.1-.2,2-.6,2.9-.4.8-.9,1.5-1.6,2-.5.4-1.1.7-1.9.8-.4,0-1.1.2-2,.2h-3.5.1Zm2.4-1.6h2.6c.3,0,.7-.3.9-.5.4-.4.7-.9,1-1.5s.4-1.3.4-2.2,0-1.2-.3-1.6-.5-.6-.9-.7h-2.5l-1.4,6.8h.2v-.3Z" style="fill: #ff7735;"/>
    <path d="m190.5,255.7h-2.1l2.1-10h4.1c.7,0,1.3,0,1.7.3s.8.5,1,.8.4.9.4,1.4,0,1-.3,1.5-.4.9-.7,1.1-.6.5-.9.7-.8.3-1.3.3h-3.1l-.8,3.8h0Zm1.1-5.5h.6c1.1,0,1.8,0,2.2-.2s.7-.4.9-.7.3-.6.3-1,0-.4-.2-.6-.3-.3-.5-.3h-2.8l-.6,2.9h.1Z" style="fill: #ff7735;"/>
    <path d="m199.2,248.4h1.8l-.3,1.4c.7-1.1,1.4-1.6,2.2-1.6s.6,0,.9.2l-.8,1.6h-.6c-.3,0-.7,0-1,.4s-.6.6-.8,1-.4,1.1-.6,2l-.5,2.3h-2l1.5-7.3h.2Z" style="fill: #ff7735;"/>
    <path d="m204.8,248.4h2l-1.5,7.3h-2l1.5-7.3Zm.6-2.8h2l-.4,1.8h-2l.4-1.8Z" style="fill: #ff7735;"/>
    <path d="m208.7,248.4h1.9l-.2.9c.5-.4.9-.7,1.3-.9s.8-.3,1.3-.3,1.1.2,1.4.5.5.8.5,1.4,0,.7-.2,1.4l-.9,4.1h-2l.9-4.1c0-.6.2-1,.2-1.1,0-.3,0-.4-.2-.6s-.4-.2-.6-.2-.6,0-1,.4-.6.6-.8,1c0,.3-.3.9-.5,1.7l-.6,3h-2l1.5-7.3h0Z" style="fill: #ff7735;"/>
    <path d="m216.2,249.8l.3-1.5h1l.2-1.2,2.2-1.4-.5,2.5h1.2l-.3,1.5h-1.2l-.6,3c0,.6-.2.9-.2.9v.4h1.1l-.3,1.5h-1c-.7,0-1.2,0-1.5-.4-.3-.3-.5-.6-.5-1.1s0-.7.3-1.5l.6-2.9h-1l.2.2Z" style="fill: #ff7735;"/>
    <path d="m227.4,252.6h-4.9v.2c0,.5,0,.9.4,1.2.3.3.6.4,1,.4.7,0,1.2-.3,1.5-1l1.8.3c-.3.7-.8,1.2-1.4,1.6-.6.4-1.2.5-1.9.5s-1.8-.3-2.4-.9-.9-1.4-.9-2.5.3-1.9.8-2.7c.8-1,1.8-1.6,3.2-1.6s1.6.3,2.1.8.8,1.3.8,2.3v1.3h-.1Zm-1.7-1.2v-.2c0-.5,0-.9-.4-1.2s-.6-.4-1-.4-.8.2-1.1.5-.5.8-.7,1.4h3.2Z" style="fill: #ff7735;"/>
    <path d="m229.5,248.4h1.8l-.3,1.4c.7-1.1,1.4-1.6,2.2-1.6s.6,0,.9.2l-.8,1.6h-.6c-.3,0-.7,0-1,.4-.3.3-.6.6-.8,1s-.4,1.1-.6,2l-.5,2.3h-2l1.5-7.3h.2Z" style="fill: #ff7735;"/>
    <path d="m244.4,251.2h-3.9l-.9,4.5h-2.1l2.1-10h2.1l-.8,3.9h3.9l.8-3.9h2.1l-2.1,10h-2.1l.9-4.5Z" style="fill: #ff7735;"/>
    <path d="m247.9,252.6c0-1.3.4-2.4,1.1-3.2.8-.8,1.8-1.2,3-1.2s1.9.3,2.5.9.9,1.4.9,2.4-.4,2.2-1.1,3-1.8,1.3-3,1.3-1.3,0-1.8-.4-.9-.7-1.2-1.2-.4-1-.4-1.6Zm5.6-1.4c0-.5,0-.8-.4-1.1-.3-.3-.6-.4-1-.4s-.8,0-1.1.4-.6.6-.8,1.1-.3,1-.3,1.4,0,.9.4,1.2.6.5,1.1.5,1-.2,1.4-.7c.5-.7.8-1.4.8-2.4h0Z" style="fill: #ff7735;"/>
    <path d="m256.6,249.8l.3-1.5h1l.2-1.2,2.2-1.4-.5,2.5h1.2l-.3,1.5h-1.2l-.6,3c0,.6-.2.9-.2.9v.4h1.1l-.3,1.5h-1c-.7,0-1.2,0-1.5-.4-.3-.3-.5-.6-.5-1.1s0-.7.3-1.5l.6-2.9h-1l.2.2h0Z" style="fill: #ff7735;"/>
    <path d="m260.8,255.7l2.1-10h5c.5,0,.9.2,1.3.4s.6.5.8.8.3.7.3,1.1-.2,1-.5,1.4-.8.7-1.4.9c.5,0,.9.4,1.2.8.3.4.4.8.4,1.2s-.2,1.2-.5,1.7-.8.9-1.4,1.2-1.4.4-2.5.4h-4.8Zm2.4-1.6h2c.8,0,1.4,0,1.7-.2.3,0,.5-.3.7-.5s.3-.5.3-.8,0-.6-.4-.8-.7-.3-1.2-.3h-2.5l-.5,2.6h-.1Zm.9-4.4h1.6c.7,0,1.2,0,1.5-.2s.5-.3.7-.5.2-.5.2-.7,0-.5-.2-.6-.4-.3-.6-.3h-2.7l-.5,2.4h0Z" style="fill: #ff7735;"/>
    <path d="m278,252.6h-4.9v.2c0,.5,0,.9.4,1.2s.6.4,1,.4c.7,0,1.2-.3,1.5-1l1.8.3c-.3.7-.8,1.2-1.4,1.6-.6.4-1.2.5-1.9.5s-1.8-.3-2.4-.9c-.6-.6-.9-1.4-.9-2.5s.3-1.9.8-2.7c.8-1,1.8-1.6,3.2-1.6s1.6.3,2.1.8.8,1.3.8,2.3v1.3h-.1Zm-1.7-1.2v-.2c0-.5,0-.9-.4-1.2s-.6-.4-1-.4-.8.2-1.1.5c-.3.3-.5.8-.7,1.4h3.2Z" style="fill: #ff7735;"/>
    <path d="m285.4,255.7h-1.9l.2-.8c-.4.3-.7.6-1,.7-.3,0-.7.2-1.2.2-.8,0-1.4-.3-1.8-.8-.5-.5-.7-1.3-.7-2.3s.3-2.2,1-3.2,1.5-1.4,2.6-1.4,1.7.4,2.2,1.2l.8-3.8h2l-2.1,10v.2h-.1Zm-4.5-3c0,.5,0,.9.4,1.2s.6.4,1,.4.7,0,1-.4c.3-.2.6-.6.7-1.1.2-.5.3-1,.3-1.4s0-.9-.4-1.3-.6-.5-1-.5c-.6,0-1,.3-1.4,1s-.6,1.3-.6,2.1Z" style="fill: #ff7735;"/>
    <path d="m291.5,252.4h2c0,.5,0,.9.3,1.2.3.4.9.5,1.7.5s1.2,0,1.5-.4.5-.5.5-.9,0-.5-.4-.8c-.2-.2-.6-.4-1.4-.7s-1.3-.6-1.7-.8c-.4-.2-.6-.5-.8-.9s-.3-.8-.3-1.3c0-.8.3-1.5.9-2.1s1.5-.8,2.7-.8,2.1.3,2.7.8c.6.6,1,1.3,1.1,2.2h-2c0-.4-.2-.8-.5-1s-.7-.4-1.3-.4-1,0-1.2.3-.4.5-.4.8,0,.5.3.7c.2.2.7.5,1.5.8,1.2.5,1.9.9,2.2,1.2.5.5.7,1,.7,1.8s-.3,1.6-1,2.3c-.7.6-1.7.9-2.9.9s-1.6,0-2.2-.4c-.6-.3-1.1-.7-1.3-1.2s-.4-1.1-.4-1.8h-.3Z" style="fill: #ff7735;"/>
    <path d="m301,249.8l.3-1.5h1l.2-1.2,2.2-1.4-.5,2.5h1.2l-.3,1.5h-1.2l-.6,3c0,.6-.2.9-.2.9v.4h1.1l-.3,1.5h-1c-.7,0-1.2,0-1.5-.4-.3-.3-.5-.6-.5-1.1s0-.7.3-1.5l.6-2.9h-1l.2.2h0Z" style="fill: #ff7735;"/>
    <path d="m306.7,248.4h2l-1.5,7.3h-2l1.5-7.3Zm.6-2.8h2l-.4,1.8h-2l.4-1.8Z" style="fill: #ff7735;"/>
    <path d="m313.9,252.9l1.9.3c-.3.8-.8,1.5-1.4,1.9s-1.3.7-2.1.7-1.7-.3-2.2-.8-.8-1.3-.8-2.3.2-1.5.5-2.2.8-1.3,1.5-1.7,1.4-.6,2.2-.6,1.5.2,2.1.7.8,1,.9,1.8l-1.9.2c0-.4-.2-.7-.4-.9-.2-.2-.5-.3-.8-.3s-.7,0-1.1.4-.6.7-.8,1.3c-.2.6-.3,1.1-.3,1.6s0,.8.3,1,.5.3.8.3.6,0,.9-.3.5-.6.7-1h0Z" style="fill: #ff7735;"/>
    <path d="m316.8,255.7l2.1-10h2l-1.1,5.2,2.6-2.5h2.5l-2.9,2.6,1.6,4.6h-2l-1-3.4-1.3,1.2-.5,2.2h-2Z" style="fill: #ff7735;"/>
    <path d="m331.7,252.6h-4.9v.2c0,.5,0,.9.4,1.2s.6.4,1,.4c.7,0,1.2-.3,1.5-1l1.8.3c-.3.7-.8,1.2-1.4,1.6-.6.4-1.2.5-1.9.5s-1.8-.3-2.4-.9c-.6-.6-.9-1.4-.9-2.5s.3-1.9.8-2.7c.8-1,1.8-1.6,3.2-1.6s1.6.3,2.1.8.8,1.3.8,2.3v1.3h-.1Zm-1.7-1.2v-.2c0-.5,0-.9-.4-1.2s-.6-.4-1-.4-.8.2-1.1.5c-.3.3-.5.8-.7,1.4h3.2Z" style="fill: #ff7735;"/>
    <path d="m333.8,248.4h1.8l-.3,1.4c.7-1.1,1.4-1.6,2.2-1.6s.6,0,.9.2l-.8,1.6h-.6c-.3,0-.7,0-1,.4-.3.3-.6.6-.8,1s-.4,1.1-.6,2l-.5,2.3h-2l1.5-7.3h.2,0Z" style="fill: #ff7735;"/>
  </g>
  <rect x="117" y="194.3" width="270.6" height="77.3" rx="12" ry="12" style="fill: none; stroke: #fff; stroke-miterlimit: 10; stroke-width: .5px;"/>
  <rect x="78.3" y="365.6" width="347.9" height="44.5" rx="12" ry="12" style="fill: none; stroke: #fff; stroke-miterlimit: 10; stroke-width: .5px;"/>
  <rect x="4.3" y="4.3" width="496.1" height="496.1" rx="5.7" ry="5.7" style="fill: none; stroke: #fff; stroke-miterlimit: 10; stroke-width: .5px;"/>
  <g>
    <line x1="4.3" y1="462.5" x2="209.6" y2="462.5" style="fill: none; stroke: #fff; stroke-miterlimit: 10;"/>
    <polygon points="208.6 464 214 462.5 208.6 461 208.6 464" style="fill: #fff;"/>
  </g>
  <g>
    <line x1="42" y1="500.3" x2="42" y2="295.9" style="fill: none; stroke: #fff; stroke-miterlimit: 10;"/>
    <polygon points="43.5 296.9 42 291.5 40.5 296.9 43.5 296.9" style="fill: #fff;"/>
  </g>
  <g>
    <path d="m74.2,488.1h-3l5.1-5.8-2.8-5.7h2.5l1.1,2.1.8,1.6v.2c.6-.8,1.2-1.4,1.6-1.9l1.8-2h3l-5.2,6,2.8,5.4h-2.7l-.9-1.7c-.4-.9-.7-1.6-.9-2-.2.3-.7.9-1.6,1.9l-1.6,1.8h0Z" style="fill: #fff;"/>
    <path d="m90.5,482.1l-2.2-.2c.2-.7.7-1.3,1.3-1.7.6-.4,1.4-.6,2.5-.6s1.9.2,2.4.6.8,1,.8,1.6v.8c0,.3-.2,1-.5,2.2-.2,1-.3,1.7-.3,2.1s0,.7.2,1.2h-2.2c0-.3,0-.6-.2-.9-.3.4-.7.6-1.1.8-.4.2-.9.3-1.3.3-.7,0-1.3-.2-1.7-.7-.4-.5-.7-1-.7-1.7s.2-1.4.7-1.9,1.4-.8,2.6-.9c1.1,0,1.8-.2,2.1-.3v-.8c0-.2,0-.4-.3-.6-.2-.2-.5-.2-.9-.2s-.7,0-.9.2c-.2.2-.4.4-.5.7h.2Zm2.1,2.1h-.5c-1.1,0-1.9.3-2.2.6s-.4.4-.4.8,0,.5.3.7.4.3.7.3.7,0,1-.2.5-.4.7-.6.3-.7.4-1.2v-.5h0Z" style="fill: #fff;"/>
    <path d="m100.1,485.8l-2.1,2.3h-2.8l3.8-4.2-2.1-4h2.4l1.2,2.4,2.1-2.4h2.7l-3.9,4.3,2.1,4h-2.4l-1.2-2.3h.2Z" style="fill: #fff;"/>
    <path d="m106.9,479.8h2.2l-1.7,8.3h-2.2l1.7-8.3Zm.7-3.2h2.2l-.4,2h-2.2l.4-2Z" style="fill: #fff;"/>
    <path d="m109.3,485.8l2.2-.3c.2.5.4.8.7,1,.3.2.7.3,1.2.3s.9,0,1.2-.3c.2-.2.3-.3.3-.6s0-.3-.2-.4c0,0-.4-.3-.9-.4-1.4-.4-2.2-.8-2.5-1.1-.5-.4-.8-.9-.8-1.6s.2-1.2.7-1.7c.7-.7,1.7-1,3-1s1.9.2,2.4.6.9.9,1,1.6l-2.1.4c0-.3-.3-.5-.5-.7-.3-.2-.7-.3-1.2-.3s-.8,0-1,.2-.3.3-.3.5,0,.4.3.5c0,0,.5.2,1.3.4,1.1.3,1.8.6,2.2.9.5.4.8,1,.8,1.6s-.3,1.5-1,2c-.7.6-1.6.9-2.8.9s-2.1-.2-2.8-.7c-.7-.4-1.1-1.1-1.3-1.9h.1Z" style="fill: #fff;"/>
    <path d="m131.2,485.5l-7.9-3.4v-1.9l7.9-3.4v2.2l-5.5,2.1,5.5,2.2v2.2h0Zm-7.9,2.6v-2.1h7.9v2.1h-7.9Z" style="fill: #fff;"/>
    <path d="m137.4,481.5l.4-2c1.9-.8,3.4-1.8,4.5-2.9h1.4l-2.4,11.5h-2.3l1.7-7.9c-.5.3-1,.6-1.6.8-.6.2-1.2.4-1.6.5h0Z" style="fill: #fff;"/>
    <path d="m147.9,481.8c-.4-.3-.7-.6-.9-.9s-.3-.7-.3-1.2,0-1,.4-1.5.7-.9,1.3-1.2c.6-.3,1.2-.4,1.9-.4,1,0,1.8.3,2.4.8.6.5.9,1.2.9,2s-.2,1.1-.5,1.5-.8.8-1.5,1.1c.5.3.8.6,1.1,1,.2.4.3.9.3,1.4,0,.9-.3,1.7-.8,2.4-.8,1-1.9,1.5-3.3,1.5s-1.8-.3-2.4-.9c-.6-.6-.9-1.4-.9-2.3s.2-1.5.6-2.1c.4-.6,1-1,1.7-1.3h0Zm0,3.4c0,.4,0,.8.4,1s.5.4.9.4c.6,0,1-.3,1.3-.8s.5-1.1.5-1.7,0-.7-.4-.9-.6-.4-.9-.4-.9.2-1.2.6c-.4.4-.5,1-.5,1.7h-.1Zm1-5.3c0,.4,0,.6.3.9s.5.3.9.3.8-.2,1.1-.5.5-.7.5-1.1,0-.7-.3-.9c-.2-.2-.5-.3-.9-.3s-.8.2-1.1.5-.4.7-.4,1.1h-.1Z" style="fill: #fff;"/>
    <path d="m154.3,484.4c0-1.2.2-2.3.6-3.5.5-1.4,1.1-2.5,1.8-3.2s1.6-1.1,2.5-1.1,1.7.3,2.3,1,.9,1.6.9,2.9-.2,2.4-.7,3.7c-.4,1.3-1,2.3-1.8,3-.7.7-1.6,1-2.5,1s-1.7-.3-2.3-1-.9-1.6-.9-2.9h0Zm2.2.5c0,.6,0,1,.3,1.3.2.2.5.4.8.4s.8-.2,1.1-.6c.4-.5.8-1.5,1.1-3,.3-1.2.4-2.2.4-2.9s0-1-.3-1.2c-.2-.3-.5-.4-.8-.4s-.7.2-1.1.6c-.5.6-.8,1.5-1.2,2.9-.3,1.2-.4,2.2-.4,2.9h0Z" style="fill: #fff;"/>
    <path d="m164.5,479.8h2.1l-.2,1c.8-.8,1.7-1.2,2.6-1.2s1.1,0,1.4.4c.3.3.6.6.6,1.1.3-.4.7-.8,1.2-1,.5-.3,1.1-.4,1.7-.4s1.2.2,1.5.5c.4.4.6.8.6,1.4s0,.8-.2,1.5l-1.1,5.1h-2.2l1.1-5.1c0-.6.2-1,.2-1.1,0-.2,0-.4-.2-.5,0,0-.3-.2-.6-.2-.6,0-1.1.3-1.5.9-.3.4-.6,1.2-.8,2.2l-.8,3.8h-2.2l1-5c0-.6.2-1,.2-1.1s0-.4-.2-.5-.4-.2-.6-.2-.5,0-.8.2c-.3,0-.5.3-.7.6s-.4.6-.5,1c0,.2-.2.6-.3,1.3l-.8,3.8h-2.2l1.7-8.3v-.2h0Z" style="fill: #fff;"/>
    <path d="m178.7,479.8h2.1l-.2,1c.8-.8,1.7-1.2,2.6-1.2s1.1,0,1.4.4c.3.3.6.6.6,1.1.3-.4.7-.8,1.2-1,.5-.3,1.1-.4,1.7-.4s1.2.2,1.5.5c.4.4.6.8.6,1.4s0,.8-.2,1.5l-1.1,5.1h-2.2l1.1-5.1c0-.6.2-1,.2-1.1,0-.2,0-.4-.2-.5,0,0-.3-.2-.6-.2-.6,0-1.1.3-1.5.9-.3.4-.6,1.2-.8,2.2l-.8,3.8h-2.2l1-5c0-.6.2-1,.2-1.1s0-.4-.2-.5-.4-.2-.6-.2-.5,0-.8.2c-.3,0-.5.3-.7.6s-.4.6-.5,1c0,.2-.2.6-.3,1.3l-.8,3.8h-2.2l1.7-8.3v-.2h0Z" style="fill: #fff;"/>
  </g>
  <g>
    <path d="m29.5,435v2.4l-4.5-.9-7,3.2v-2.5l3.2-1.4c.8-.3,1.3-.6,1.7-.7-.3-.2-.7-.4-1.1-.7l-1.5-1.1-2.3-1.6v-2.7l7.2,5.2,4.2.9h0Z" style="fill: #fff;"/>
    <path d="m23.5,422.8l-.2,2.2c-.7-.2-1.3-.7-1.7-1.3s-.6-1.4-.6-2.5.2-1.9.6-2.4,1-.8,1.6-.8h.8c.3,0,1,.2,2.2.5,1,.2,1.7.3,2.1.3s.7,0,1.2-.2v2.2c-.3,0-.6,0-.9.2.4.3.6.7.8,1.1s.3.9.3,1.3c0,.7-.2,1.3-.7,1.7s-1,.7-1.7.7-1.4-.2-1.9-.7-.8-1.4-.9-2.6c0-1.1-.2-1.8-.3-2.1h-.8c-.2,0-.4,0-.6.3s-.2.5-.2.9,0,.7.2.9.4.4.7.5h0v-.2Zm2.1-2.1v.5c0,1.1.3,1.9.6,2.2s.4.4.8.4.5,0,.7-.3.3-.4.3-.7,0-.7-.2-1-.4-.5-.6-.7-.7-.3-1.2-.4h-.5.1Z" style="fill: #fff;"/>
    <path d="m27.2,413.3l2.3,2.1v2.8l-4.2-3.8-4,2.1v-2.4l2.4-1.2-2.4-2.1v-2.7l4.3,3.9,4-2.1v2.4l-2.3,1.2v-.2h0Z" style="fill: #fff;"/>
    <path d="m18,405.8v-2.2l2,.4v2.2l-2-.4Zm3.2.7v-2.2l8.3,1.7v2.2l-8.3-1.7Z" style="fill: #fff;"/>
    <path d="m27.2,404l-.3-2.2c.5-.2.8-.4,1-.7s.3-.7.3-1.2,0-.9-.3-1.2c-.2-.2-.3-.3-.6-.3s-.3,0-.4.2c0,0-.3.4-.4.9-.4,1.4-.8,2.2-1.1,2.5-.4.5-.9.8-1.6.8s-1.2-.2-1.7-.7c-.7-.7-1-1.7-1-3s.2-1.9.6-2.4.9-.9,1.6-1l.4,2.1c-.3,0-.5.3-.7.5-.2.3-.3.7-.3,1.2s0,.8.2,1,.3.3.5.3.4,0,.5-.3c0,0,.2-.5.4-1.3.3-1.1.6-1.8.9-2.2.4-.5,1-.8,1.6-.8s1.5.3,2,1,.9,1.6.9,2.8-.2,2.1-.7,2.8-1.1,1.1-1.9,1.3h.1Z" style="fill: #fff;"/>
    <path d="m26.9,382.2l-3.4,7.9h-1.9l-3.4-7.9h2.2l2.1,5.5,2.2-5.5s2.2,0,2.2,0Zm2.6,7.9h-2.1v-7.9h2.1v7.9Z" style="fill: #fff;"/>
    <path d="m22.9,375.9l-2-.4c-.8-1.9-1.8-3.4-2.9-4.5v-1.4l11.5,2.4v2.3l-7.9-1.7c.3.5.6,1,.8,1.6s.4,1.2.5,1.6h0Z" style="fill: #fff;"/>
    <path d="m23.2,365.5c-.3.4-.6.7-.9.9s-.7.3-1.2.3-1,0-1.5-.4-.9-.7-1.2-1.3-.4-1.2-.4-1.9c0-1,.3-1.8.8-2.4s1.2-.9,2-.9,1.1.2,1.5.5.8.8,1.1,1.5c.3-.5.6-.8,1-1.1s.9-.3,1.4-.3c.9,0,1.7.3,2.4.8,1,.8,1.5,1.9,1.5,3.3s-.3,1.8-.9,2.4-1.4.9-2.3.9-1.5-.2-2.1-.6-1-1-1.3-1.7h.1Zm-1.9-.9c.4,0,.6,0,.9-.3s.3-.5.3-.9-.2-.8-.5-1.1-.7-.5-1.1-.5-.7,0-.9.3-.3.5-.3.9.2.8.5,1.1.7.4,1.1.4h0Zm5.3,1c.4,0,.8,0,1-.4s.4-.5.4-.9c0-.6-.3-1-.8-1.3s-1.1-.5-1.7-.5-.7,0-.9.4-.4.6-.4.9.2.9.6,1.2,1,.5,1.7.5h0Z" style="fill: #fff;"/>
    <path d="m25.8,359c-1.2,0-2.3-.2-3.5-.6-1.4-.5-2.5-1.1-3.2-1.8s-1.1-1.6-1.1-2.5.3-1.7,1-2.3,1.6-.9,2.9-.9,2.4.2,3.7.7,2.3,1,3,1.8,1,1.6,1,2.5-.3,1.7-1,2.3-1.6.9-2.9.9h.1Zm.5-2.2c.6,0,1,0,1.3-.3s.4-.5.4-.8-.2-.8-.6-1.1c-.5-.4-1.5-.8-3-1.1-1.2-.3-2.2-.4-2.9-.4s-1,0-1.2.3-.4.5-.4.8.2.7.6,1.1c.6.5,1.5.8,2.9,1.2,1.2.3,2.2.4,2.9.4h0Z" style="fill: #fff;"/>
    <path d="m21.2,348.8v-2.1l1,.2c-.8-.8-1.2-1.7-1.2-2.6s0-1.1.4-1.4.6-.6,1.1-.6c-.4-.3-.8-.7-1-1.2s-.4-1.1-.4-1.7.2-1.2.5-1.5.8-.6,1.4-.6.8,0,1.5.2l5.1,1.1v2.2l-5.1-1.1c-.6,0-1-.2-1.1-.2-.2,0-.4,0-.5.2s-.2.3-.2.6c0,.6.3,1.1.9,1.5.4.3,1.2.6,2.2.8l3.8.8v2.2l-5-1c-.6,0-1-.2-1.1-.2s-.4,0-.5.2-.2.4-.2.6,0,.5.2.8.3.5.6.7.6.4,1,.5c.2,0,.6.2,1.3.3l3.8.8v2.2l-8.3-1.7h-.2,0Z" style="fill: #fff;"/>
    <path d="m21.2,334.6v-2.1l1,.2c-.8-.8-1.2-1.7-1.2-2.6s0-1.1.4-1.4.6-.6,1.1-.6c-.4-.3-.8-.7-1-1.2s-.4-1.1-.4-1.7.2-1.2.5-1.5.8-.6,1.4-.6.8,0,1.5.2l5.1,1.1v2.2l-5.1-1.1c-.6,0-1-.2-1.1-.2-.2,0-.4,0-.5.2s-.2.3-.2.6c0,.6.3,1.1.9,1.5.4.3,1.2.6,2.2.8l3.8.8v2.2l-5-1c-.6,0-1-.2-1.1-.2s-.4,0-.5.2-.2.4-.2.6,0,.5.2.8.3.5.6.7.6.4,1,.5c.2,0,.6.2,1.3.3l3.8.8v2.2l-8.3-1.7h-.2,0Z" style="fill: #fff;"/>
  </g>
  <g>
    <line x1="500.3" y1="42" x2="295" y2="42" style="fill: none; stroke: #fff; stroke-miterlimit: 10;"/>
    <polygon points="296 40.5 290.6 42 296 43.5 296 40.5" style="fill: #fff;"/>
  </g>
  <g>
    <line x1="462.6" y1="4.3" x2="462.6" y2="208.7" style="fill: none; stroke: #fff; stroke-miterlimit: 10;"/>
    <polygon points="461.1 207.7 462.6 213.1 464.1 207.7 461.1 207.7" style="fill: #fff;"/>
  </g>
  <g>
    <path d="m316.9,24.2h-3l5.1-5.8-2.8-5.7h2.5l1.1,2.1s.3.6.8,1.6v.2c.6-.8,1.2-1.4,1.6-1.9l1.8-2h3l-5.2,6,2.8,5.4h-2.7l-.9-1.7c-.4-.9-.7-1.6-.9-2-.2.3-.7.9-1.6,1.9l-1.6,1.8h0Z" style="fill: #fff;"/>
    <path d="m333.3,18.2l-2.2-.2c.2-.7.7-1.3,1.3-1.7.6-.4,1.4-.6,2.5-.6s1.9.2,2.4.6c.5.4.8,1,.8,1.6v.8c0,.3-.2,1-.5,2.2-.2,1-.3,1.7-.3,2.1s0,.7.2,1.2h-2.2c0-.3,0-.6-.2-.9-.3.4-.7.6-1.1.8-.4.2-.9.3-1.3.3-.7,0-1.3-.2-1.7-.7-.4-.5-.7-1-.7-1.7s.2-1.4.7-1.9,1.4-.8,2.6-.9c1.1,0,1.8-.2,2.1-.3v-.8c0-.2,0-.4-.3-.6-.2-.2-.5-.2-.9-.2s-.7,0-.9.2c-.2.2-.4.4-.5.7h.2Zm2.1,2.1h-.5c-1.1,0-1.9.3-2.2.6s-.4.4-.4.8,0,.5.3.7.4.3.7.3.7,0,1-.2.5-.4.7-.6.3-.7.4-1.2v-.5h0Z" style="fill: #fff;"/>
    <path d="m342.9,21.9l-2.1,2.3h-2.8l3.8-4.2-2.1-4h2.4l1.2,2.4,2.1-2.4h2.7l-3.9,4.3,2.1,4h-2.4l-1.2-2.3h.2,0Z" style="fill: #fff;"/>
    <path d="m349.7,15.9h2.2l-1.7,8.3h-2.2s1.7-8.3,1.7-8.3Zm.7-3.2h2.2l-.4,2h-2.2l.4-2Z" style="fill: #fff;"/>
    <path d="m352.1,21.9l2.2-.3c.2.5.4.8.7,1,.3.2.7.3,1.2.3s.9,0,1.2-.3c.2-.2.3-.3.3-.6s0-.3-.2-.4c0,0-.4-.3-.9-.4-1.4-.4-2.2-.8-2.5-1.1-.5-.4-.8-.9-.8-1.6s.2-1.2.7-1.7c.7-.7,1.7-1,3-1s1.9.2,2.4.6c.5.4.9.9,1,1.6l-2.1.4c0-.3-.3-.5-.5-.7-.3-.2-.7-.3-1.2-.3s-.8,0-1,.2-.3.3-.3.5,0,.4.3.5c0,0,.5.2,1.3.4,1.1.3,1.8.6,2.2.9.5.4.8,1,.8,1.6s-.3,1.5-1,2c-.7.6-1.6.9-2.8.9s-2.1-.2-2.8-.7c-.7-.4-1.1-1.1-1.3-1.9h0Z" style="fill: #fff;"/>
    <path d="m373.9,21.6l-7.9-3.4v-1.9l7.9-3.4v2.2l-5.5,2.1,5.5,2.2s0,2.2,0,2.2Zm-7.9,2.6v-2.1h7.9v2.1h-7.9Z" style="fill: #fff;"/>
    <path d="m380.2,17.6l.4-2c1.9-.8,3.4-1.8,4.5-2.9h1.4l-2.4,11.5h-2.3l1.7-7.9c-.5.3-1,.6-1.6.8-.6.2-1.2.4-1.6.5h-.1Z" style="fill: #fff;"/>
    <path d="m390.6,17.9c-.4-.3-.7-.6-.9-.9-.2-.3-.3-.7-.3-1.2s0-1,.4-1.5.7-.9,1.3-1.2c.6-.3,1.2-.4,1.9-.4,1,0,1.8.3,2.4.8s.9,1.2.9,2-.2,1.1-.5,1.5-.8.8-1.5,1.1c.5.3.8.6,1.1,1,.2.4.3.9.3,1.4,0,.9-.3,1.7-.8,2.4-.8,1-1.9,1.5-3.3,1.5s-1.8-.3-2.4-.9-.9-1.4-.9-2.3.2-1.5.6-2.1,1-1,1.7-1.3h0Zm0,3.4c0,.4,0,.8.4,1s.5.4.9.4c.6,0,1-.3,1.3-.8s.5-1.1.5-1.7,0-.7-.4-.9-.6-.4-.9-.4-.9.2-1.2.6c-.4.4-.5,1-.5,1.7h0Zm1-5.3c0,.4,0,.6.3.9s.5.3.9.3.8-.2,1.1-.5.5-.7.5-1.1,0-.7-.3-.9c-.2-.2-.5-.3-.9-.3s-.8.2-1.1.5c-.3.3-.4.7-.4,1.1h-.1Z" style="fill: #fff;"/>
    <path d="m397.1,20.5c0-1.2.2-2.3.6-3.5.5-1.4,1.1-2.5,1.8-3.2s1.6-1.1,2.5-1.1,1.7.3,2.3,1c.6.7.9,1.6.9,2.9s-.2,2.4-.7,3.7c-.4,1.3-1,2.3-1.8,3-.7.7-1.6,1-2.5,1s-1.7-.3-2.3-1-.9-1.6-.9-2.9h.1Zm2.2.5c0,.6,0,1,.3,1.3.2.2.5.4.8.4s.8-.2,1.1-.6c.4-.5.8-1.5,1.1-3,.3-1.2.4-2.2.4-2.9s0-1-.3-1.2c-.2-.3-.5-.4-.8-.4s-.7.2-1.1.6c-.5.6-.8,1.5-1.2,2.9-.3,1.2-.4,2.2-.4,2.9h.1Z" style="fill: #fff;"/>
    <path d="m407.3,15.9h2.1l-.2,1c.8-.8,1.7-1.2,2.6-1.2s1.1,0,1.4.4c.3.3.6.6.6,1.1.3-.4.7-.8,1.2-1,.5-.3,1.1-.4,1.7-.4s1.2.2,1.5.5c.4.4.6.8.6,1.4s0,.8-.2,1.5l-1.1,5.1h-2.2l1.1-5.1c0-.6.2-1,.2-1.1,0-.2,0-.4-.2-.5,0,0-.3-.2-.6-.2-.6,0-1.1.3-1.5.9-.3.4-.6,1.2-.8,2.2l-.8,3.8h-2.2l1-5c0-.6.2-1,.2-1.1s0-.4-.2-.5-.4-.2-.6-.2-.5,0-.8.2c-.3,0-.5.3-.7.6s-.4.6-.5,1c0,.2-.2.6-.3,1.3l-.8,3.8h-2.2l1.7-8.3v-.2h0Z" style="fill: #fff;"/>
    <path d="m421.5,15.9h2.1l-.2,1c.8-.8,1.7-1.2,2.6-1.2s1.1,0,1.4.4c.3.3.6.6.6,1.1.3-.4.7-.8,1.2-1,.5-.3,1.1-.4,1.7-.4s1.2.2,1.5.5c.4.4.6.8.6,1.4s0,.8-.2,1.5l-1.1,5.1h-2.2l1.1-5.1c0-.6.2-1,.2-1.1,0-.2,0-.4-.2-.5,0,0-.3-.2-.6-.2-.6,0-1.1.3-1.5.9-.3.4-.6,1.2-.8,2.2l-.8,3.8h-2.2l1-5c0-.6.2-1,.2-1.1s0-.4-.2-.5-.4-.2-.6-.2-.5,0-.8.2c-.3,0-.5.3-.7.6s-.4.6-.5,1c0,.2-.2.6-.3,1.3l-.8,3.8h-2.2l1.7-8.3v-.2h0Z" style="fill: #fff;"/>
  </g>
  <g>
    <path d="m475.1,69.5v-2.4l4.5.9,7-3.2v2.5l-3.2,1.4c-.8.3-1.3.6-1.7.7.3.2.7.4,1.1.7l1.5,1.1,2.3,1.6v2.7l-7.2-5.2-4.2-.9h0Z" style="fill: #fff;"/>
    <path d="m481,81.8l.2-2.2c.7.2,1.3.7,1.7,1.3.4.6.6,1.4.6,2.5s-.2,1.9-.6,2.4-1,.8-1.6.8h-.8c-.3,0-1-.2-2.2-.5-1-.2-1.7-.3-2.1-.3s-.7,0-1.2.2v-2.2c.3,0,.6,0,.9-.2-.4-.3-.6-.7-.8-1.1-.2-.4-.3-.9-.3-1.3,0-.7.2-1.3.7-1.7.5-.4,1-.7,1.7-.7s1.4.2,1.9.7.8,1.4.9,2.6c0,1.1.2,1.8.3,2.1h.8c.2,0,.4,0,.6-.3.2-.2.2-.5.2-.9s0-.7-.2-.9c-.2-.2-.4-.4-.7-.5h0v.2Zm-2.1,2.1v-.5c0-1.1-.3-1.9-.6-2.2s-.4-.4-.8-.4-.5,0-.7.3-.3.4-.3.7,0,.7.2,1,.4.5.6.7.7.3,1.2.4h.5-.1Z" style="fill: #fff;"/>
    <path d="m477.4,91.3l-2.3-2.1v-2.8l4.2,3.8,4-2.1v2.4l-2.4,1.2,2.4,2.1v2.7l-4.3-3.9-4,2.1v-2.4l2.3-1.2v.2h0Z" style="fill: #fff;"/>
    <path d="m483.4,98.1v2.2l-8.3-1.7v-2.2l8.3,1.7Zm3.2.7v2.2l-2-.4v-2.2l2,.4Z" style="fill: #fff;"/>
    <path d="m477.4,100.5l.3,2.2c-.5.2-.8.4-1,.7-.2.3-.3.7-.3,1.2s0,.9.3,1.2c.2.2.3.3.6.3s.3,0,.4-.2c0,0,.3-.4.4-.9.4-1.4.8-2.2,1.1-2.5.4-.5.9-.8,1.6-.8s1.2.2,1.7.7c.7.7,1,1.7,1,3s-.2,1.9-.6,2.4-.9.9-1.6,1l-.4-2.1c.3,0,.5-.3.7-.5.2-.3.3-.7.3-1.2s0-.8-.2-1-.3-.3-.5-.3-.4,0-.5.3c0,0-.2.5-.4,1.3-.3,1.1-.6,1.8-.9,2.2-.4.5-1,.8-1.6.8s-1.5-.3-2-1c-.6-.7-.9-1.6-.9-2.8s.2-2.1.7-2.8c.4-.7,1.1-1.1,1.9-1.3h-.1Z" style="fill: #fff;"/>
    <path d="m475.1,114.6h2.1v7.9h-2.1v-7.9Zm2.6,7.9l3.4-7.9h1.9l3.4,7.9h-2.2l-2.1-5.5-2.2,5.5h-2.2,0Z" style="fill: #fff;"/>
    <path d="m481.7,128.7l2,.4c.8,1.9,1.8,3.4,2.9,4.5v1.4l-11.5-2.4v-2.3l7.9,1.7c-.3-.5-.6-1-.8-1.6-.2-.6-.4-1.2-.5-1.6h0Z" style="fill: #fff;"/>
    <path d="m481.4,139.1c.3-.4.6-.7.9-.9s.7-.3,1.2-.3,1,0,1.5.4.9.7,1.2,1.3c.3.6.4,1.2.4,1.9,0,1-.3,1.8-.8,2.4-.5.6-1.2.9-2,.9s-1.1-.2-1.5-.5-.8-.8-1.1-1.5c-.3.5-.6.8-1,1.1-.4.2-.9.3-1.4.3-.9,0-1.7-.3-2.4-.8-1-.8-1.5-1.9-1.5-3.3s.3-1.8.9-2.4c.6-.6,1.4-.9,2.3-.9s1.5.2,2.1.6c.6.4,1,1,1.3,1.7h-.1Zm-3.4,0c-.4,0-.8,0-1,.4s-.4.5-.4.9c0,.6.3,1,.8,1.3s1.1.5,1.7.5.7,0,.9-.4.4-.6.4-.9-.2-.9-.6-1.2c-.4-.4-1-.5-1.7-.5h0Zm5.3,1c-.4,0-.6,0-.9.3s-.3.5-.3.9.2.8.5,1.1.7.5,1.1.5.7,0,.9-.3c.2-.2.3-.5.3-.9s-.2-.8-.5-1.1-.7-.4-1.1-.4h0Z" style="fill: #fff;"/>
    <path d="m478.8,145.6c1.2,0,2.3.2,3.5.6,1.4.5,2.5,1.1,3.2,1.8s1.1,1.6,1.1,2.5-.3,1.7-1,2.3-1.6.9-2.9.9-2.4-.2-3.7-.7c-1.3-.4-2.3-1-3-1.8-.7-.7-1-1.6-1-2.5s.3-1.7,1-2.3,1.6-.9,2.9-.9h-.1Zm-.5,2.2c-.6,0-1,0-1.3.3-.2.2-.4.5-.4.8s.2.8.6,1.1c.5.4,1.5.8,3,1.1,1.2.3,2.2.4,2.9.4s1,0,1.2-.3c.3-.2.4-.5.4-.8s-.2-.7-.6-1.1c-.6-.5-1.5-.8-2.9-1.2-1.2-.3-2.2-.4-2.9-.4h0Z" style="fill: #fff;"/>
    <path d="m483.4,155.8v2.1l-1-.2c.8.8,1.2,1.7,1.2,2.6s0,1.1-.4,1.4c-.3.3-.6.6-1.1.6.4.3.8.7,1,1.2.3.5.4,1.1.4,1.7s-.2,1.2-.5,1.5c-.4.4-.8.6-1.4.6s-.8,0-1.5-.2l-5.1-1.1v-2.2l5.1,1.1c.6,0,1,.2,1.1.2.2,0,.4,0,.5-.2,0,0,.2-.3.2-.6,0-.6-.3-1.1-.9-1.5-.4-.3-1.2-.6-2.2-.8l-3.8-.8v-2.2l5,1c.6,0,1,.2,1.1.2s.4,0,.5-.2.2-.4.2-.6,0-.5-.2-.8c0-.3-.3-.5-.6-.7s-.6-.4-1-.5c-.2,0-.6-.2-1.3-.3l-3.8-.8v-2.2l8.3,1.7h.2,0Z" style="fill: #fff;"/>
    <path d="m483.4,170v2.1l-1-.2c.8.8,1.2,1.7,1.2,2.6s0,1.1-.4,1.4c-.3.3-.6.6-1.1.6.4.3.8.7,1,1.2.3.5.4,1.1.4,1.7s-.2,1.2-.5,1.5c-.4.4-.8.6-1.4.6s-.8,0-1.5-.2l-5.1-1.1v-2.2l5.1,1.1c.6,0,1,.2,1.1.2.2,0,.4,0,.5-.2,0,0,.2-.3.2-.6,0-.6-.3-1.1-.9-1.5-.4-.3-1.2-.6-2.2-.8l-3.8-.8v-2.2l5,1c.6,0,1,.2,1.1.2s.4,0,.5-.2.2-.4.2-.6,0-.5-.2-.8c0-.3-.3-.5-.6-.7s-.6-.4-1-.5c-.2,0-.6-.2-1.3-.3l-3.8-.8v-2.2l8.3,1.7h.2,0Z" style="fill: #fff;"/>
  </g>
</svg>