<?xml version="1.0" encoding="UTF-8"?>
<svg id="a" xmlns="http://www.w3.org/2000/svg" width="198mm" height="198mm" viewBox="0 0 561.3 561.3">
  <g>
    <path d="m218.4,501.4h5.8c1,0,1.7.2,2.2.7s.8,1.1.8,1.8-.2,1.1-.6,1.5c-.2.3-.6.5-1.1.7.7.2,1.2.5,1.6.9.3.4.5,1,.5,1.6s-.1,1-.4,1.4-.6.7-1,1c-.3.2-.7.3-1.2.3s-1.2.1-1.4.1h-5.3v-10h0Zm3.1,3.9h1.3c.5,0,.8,0,1-.2s.3-.4.3-.7,0-.5-.3-.7-.5-.2-1-.2h-1.4v1.8h0Zm0,3.9h1.6c.5,0,.9,0,1.1-.3.2-.2.3-.4.3-.8s-.1-.5-.3-.7-.6-.3-1.1-.3h-1.6v2.1h0Z" style="fill: #fff;"/>
    <path d="m236.7,511.4h-2.6v-1.2c-.4.5-.8.8-1.2,1s-.9.3-1.5.3-1.4-.2-1.8-.7-.7-1.2-.7-2.1v-4.6h2.8v4c0,.5,0,.8.3,1s.4.3.7.3.6-.1.8-.4.3-.7.3-1.4v-3.5h2.8v7.3h0Z" style="fill: #fff;"/>
    <path d="m238.5,501.4h2.8v1.9h-2.8v-1.9Zm0,2.8h2.8v7.3h-2.8v-7.3Z" style="fill: #fff;"/>
    <path d="m243.2,501.4h2.8v10h-2.8v-10Z" style="fill: #fff;"/>
    <path d="m255.4,501.4v10h-2.6v-1.1c-.4.5-.7.8-1,.9-.4.2-.8.3-1.3.3-1,0-1.7-.4-2.3-1.1-.5-.8-.8-1.7-.8-2.7s.3-2.1.9-2.8c.6-.6,1.3-1,2.2-1s.8,0,1.2.2c.4.1.7.4.9.7v-3.5h2.8Zm-2.8,6.4c0-.6-.1-1-.4-1.3-.2-.3-.5-.4-.9-.4s-.6.1-.8.4-.3.7-.3,1.4.1,1,.3,1.3.5.4.8.4.7-.1.9-.4c.2-.3.4-.7.4-1.4Z" style="fill: #fff;"/>
    <path d="m261.9,501.4h5.1c1.1,0,2,.3,2.5.8.6.5.8,1.3.8,2.3s-.3,1.8-.9,2.4-1.5.9-2.8.9h-1.7v3.7h-3.1v-10.1h.1Zm3.1,4.3h.8c.6,0,1-.1,1.3-.3.2-.2.4-.5.4-.8s-.1-.6-.3-.8-.6-.3-1.2-.3h-.9v2.2h0Z" style="fill: #fff;"/>
    <path d="m272,501.4h2.8v10h-2.8v-10Z" style="fill: #fff;"/>
    <path d="m279.1,506.5l-2.7-.3c.1-.5.2-.8.4-1.1.2-.3.5-.5.8-.7.3-.1.6-.3,1.1-.3s.9-.1,1.4-.1c.8,0,1.5,0,2,.1.5,0,.9.3,1.3.6.2.2.4.5.6.9.1.4.2.7.2,1.1v4c0,.2.1.4.3.7h-2.6c-.1-.2-.2-.3-.2-.4v-.5c-.4.4-.7.6-1.1.8-.5.2-1.1.3-1.7.3s-1.5-.2-2-.6c-.4-.4-.7-.9-.7-1.5s.2-1,.5-1.4.9-.6,1.8-.8c1-.2,1.7-.4,2-.4s.6-.2,1-.3c0-.3,0-.6-.2-.7s-.4-.2-.7-.2-.8,0-1,.2c-.2.1-.3.3-.4.6h0Zm2.4,1.5c-.4.1-.8.3-1.2.4-.6.2-.9.3-1.1.4-.2.2-.2.3-.2.5s0,.4.2.5.4.2.7.2.6,0,.9-.2.5-.3.6-.5.2-.5.2-.8v-.4h-.1Z" style="fill: #fff;"/>
    <path d="m289,501.4v2.8h1.5v2h-1.5v3.2c0,.2.3.2.5.2s.5,0,.9-.2l.2,1.9c-.7.2-1.3.2-1.9.2s-1.2,0-1.5-.3c-.3-.2-.6-.4-.7-.8-.2-.4-.2-.9-.2-1.8v-2.6h-1v-2h1v-1.3l2.7-1.3h0Z" style="fill: #fff;"/>
    <path d="m299.9,508.5h-5.6c0,.4.2.8.4,1,.3.3.6.5,1.1.5s.5,0,.8-.2c.2,0,.3-.2.5-.5l2.7.3c-.4.7-.9,1.3-1.5,1.6-.6.3-1.4.5-2.5.5s-1.7-.1-2.3-.4c-.6-.3-1-.7-1.4-1.3-.4-.6-.5-1.3-.5-2.1s.4-2.1,1.1-2.8c.7-.7,1.7-1.1,3-1.1s1.9.2,2.5.5,1.1.8,1.4,1.4.5,1.4.5,2.3v.3h-.2Zm-2.8-1.3c0-.5-.2-.9-.4-1.2-.2-.2-.5-.3-.9-.3s-.8.2-1.1.5c-.2.2-.3.5-.3,1h2.7Z" style="fill: #fff;"/>
    <path d="m310.8,501.4h1.7v12.8h-1.7v-12.8Z" style="fill: #fff;"/>
    <path d="m329.8,501.2v10.2h-2.8v-6.7c-.5.3-.9.6-1.3.8s-1,.4-1.6.6v-2.3c.9-.3,1.7-.7,2.2-1.1s.9-1,1.2-1.6h2.3,0Z" style="fill: #fff;"/>
    <path d="m332.8,506.4c0-1.9.3-3.2,1-4s1.7-1.1,3.1-1.1,1.2,0,1.7.2c.4.2.8.4,1.1.7s.5.5.6.8c.2.3.3.6.4,1,.2.7.3,1.5.3,2.3,0,1.8-.3,3.1-.9,4s-1.7,1.3-3.2,1.3-1.5-.1-2-.4-.9-.7-1.3-1.2c-.2-.4-.4-.9-.6-1.5-.1-.6-.2-1.3-.2-2.1h0Zm2.8,0c0,1.3.1,2.1.3,2.6s.6.7,1,.7.5,0,.7-.3c.2-.2.4-.5.5-.9,0-.4.1-1.1.1-2,0-1.3-.1-2.2-.3-2.7-.2-.5-.6-.7-1-.7s-.8.2-1,.7c-.2.5-.3,1.3-.3,2.6h0Z" style="fill: #fff;"/>
    <path d="m342.4,504.1h2.6v1.1c.4-.4.8-.8,1.1-.9s.8-.3,1.4-.3,1,.1,1.4.3c.4.2.6.5.8.9.4-.5.8-.8,1.2-1,.4-.2.8-.3,1.3-.3.8,0,1.4.2,1.8.7s.7,1.2.7,2.2v4.6h-2.8v-4.1c0-.3,0-.6-.2-.7-.2-.3-.4-.4-.7-.4s-.6.1-.8.4c-.2.3-.3.6-.3,1.1v3.7h-2.8v-4.6c0-.2-.2-.3-.3-.4-.1-.1-.3-.2-.5-.2-.3,0-.6.1-.8.4-.2.3-.3.6-.3,1.2v3.7h-2.8v-7.3h0Z" style="fill: #fff;"/>
    <path d="m356.4,504.1h2.6v1.1c.4-.4.8-.8,1.1-.9s.8-.3,1.4-.3,1,.1,1.4.3c.4.2.6.5.8.9.4-.5.8-.8,1.2-1,.4-.2.8-.3,1.3-.3.8,0,1.4.2,1.8.7s.7,1.2.7,2.2v4.6h-2.8v-4.1c0-.3,0-.6-.2-.7-.2-.3-.4-.4-.7-.4s-.6.1-.8.4c-.2.3-.3.6-.3,1.1v3.7h-2.8v-4.6c0-.2-.2-.3-.3-.4-.1-.1-.3-.2-.5-.2-.3,0-.6.1-.8.4-.2.3-.3.6-.3,1.2v3.7h-2.8v-7.3h0Z" style="fill: #fff;"/>
    <path d="m374.7,506.7h-4.9c0-.5.2-.9.5-1.4.3-.4.8-.9,1.6-1.5.5-.4.8-.6.9-.8.1-.2.2-.4.2-.5s0-.3-.2-.5-.3-.2-.5-.2-.4,0-.5.2c-.1.1-.2.4-.3.7h-1.6c0-.6.2-.9.4-1.2.2-.3.4-.5.7-.6.3-.1.7-.2,1.3-.2s1,0,1.3.2c.3.1.6.3.7.6.2.3.3.6.3.9s-.1.7-.3,1-.6.7-1.1,1.1c-.3.2-.5.4-.7.5-.1,0-.2.2-.4.4h2.5v1.3h.1Z" style="fill: #fff;"/>
    <path d="m385.7,507.8v-2.1h4.8v4.3c-.9.6-1.7,1-2.4,1.3-.7.2-1.5.3-2.5.3s-2.2-.2-2.9-.6-1.3-1-1.7-1.8c-.4-.8-.6-1.7-.6-2.8s.2-2,.7-2.9c.5-.8,1.1-1.4,2-1.8.7-.3,1.6-.5,2.7-.5s1.9.1,2.5.3c.5.2,1,.5,1.4.9s.6,1,.8,1.6l-3,.5c-.1-.4-.3-.7-.6-.9-.3-.2-.7-.3-1.1-.3-.7,0-1.2.2-1.6.7s-.6,1.2-.6,2.2.2,1.9.6,2.3c.4.5,1,.7,1.7.7s.7,0,1-.2.7-.3,1.1-.5v-.9h-2.1l-.2.2Z" style="fill: #fff;"/>
    <path d="m392.2,504.1h2.6v1.2c.3-.5.5-.9.8-1.1s.6-.3,1-.3.9.1,1.3.4l-.9,2c-.3-.1-.6-.2-.8-.2-.4,0-.6.2-.8.5-.3.4-.4,1.2-.4,2.4v2.4h-2.8v-7.3h0Z" style="fill: #fff;"/>
    <path d="m398.5,501.4h2.8v1.9h-2.8v-1.9Zm0,2.8h2.8v7.3h-2.8v-7.3Z" style="fill: #fff;"/>
    <path d="m410.7,501.4v10h-2.6v-1.1c-.4.5-.7.8-1,.9-.4.2-.8.3-1.3.3-1,0-1.7-.4-2.3-1.1-.5-.8-.8-1.7-.8-2.7s.3-2.1.9-2.8c.6-.6,1.3-1,2.2-1s.8,0,1.2.2c.4.1.7.4.9.7v-3.5h2.8Zm-2.8,6.4c0-.6-.1-1-.4-1.3-.2-.3-.5-.4-.9-.4s-.6.1-.8.4c-.2.3-.3.7-.3,1.4s.1,1,.3,1.3c.2.3.5.4.8.4s.7-.1.9-.4c.2-.3.4-.7.4-1.4Z" style="fill: #fff;"/>
  </g>
  <path d="m69.8,521.5c.8-.9,1.3-1.5,1.6-1.7.3-.3.4-.4.5-.4s0,0,.2,0c0,0,0,0,0,.2s0,.2-.3.4c-.3.3-.6.6-1.1,1.1-.4.5-.7.7-.7.8v.2s.2.3.5.6c.2.3.4.5.5.6s.3.2.4.3c0,0,.2.2.3.3,0,0,0,.2,0,.2v.2h-.2c-.2,0-.4,0-.6-.3s-.6-.7-1.1-1.3c0,0-.2-.3-.3-.4,0,0,0,.2-.2.3-.9.9-1.3,1.4-1.4,1.7,0,.3-.2.4-.2.5s-.2,0-.4,0-.3,0-.3-.3.6-1.1,1.9-2.4c.2-.2.3-.3.3-.3,0,0,0,0-.2-.4-.8-1-1.2-1.6-1.2-1.7v-.3c0,0,0,0,.2,0s.3,0,.4.4c.2.5.6,1.1,1.2,1.7,0,0,0,0,0,0Z" style="fill: #fff;"/>
  <path d="m52.9,505.5c-.2-.2-.4-.5-.7-.9-.2-.3-.4-.5-.5-.6s-.2-.2-.4-.3c-.2-.2-.3-.3-.4-.4v-.2c0-.1,0,0,0-.1s0,0,.2,0,.3.1.6.3c.2.2.4.4.6.7.6.7.9,1.1,1,1.2,0-.1.3-.3.4-.5.8-.8,1.2-1.3,1.4-1.5.2-.3.4-.4.5-.4h.2v.2c0,.1,0,.2-.3.4-.2.2-.6.7-1.4,1.5s-.6.6-.6.7,0,.4-.2.9c0,.5,0,.9,0,1.2v.3h-.3c-.2,0-.3-.1-.3-.4s0-.5,0-.9c0-.4,0-.7,0-.9q0-.2,0-.3h0Z" style="fill: #fff;"/>
  <line x1="57.4" y1="492.7" x2="57.4" y2="518.2" style="fill: none; stroke: #fff; stroke-linecap: round; stroke-miterlimit: 10; stroke-width: 1px;"/>
  <line x1="57.4" y1="518.2" x2="82.9" y2="518.2" style="fill: none; stroke: #fff; stroke-linecap: round; stroke-miterlimit: 10; stroke-width: 1px;"/>
  <g>
    <path d="m160,511.5h-8.4c.1-.8.4-1.6.9-2.3.5-.7,1.4-1.6,2.7-2.6.8-.6,1.3-1.1,1.6-1.4s.3-.6.3-.9-.1-.6-.3-.8c-.2-.2-.5-.3-.9-.3s-.6.1-.9.3-.4.6-.5,1.2l-2.8-.2c.1-.8.3-1.4.6-1.8s.7-.8,1.2-1,1.3-.4,2.2-.4,1.7.1,2.3.3,1,.6,1.3,1c.3.5.5,1,.5,1.6s-.2,1.2-.5,1.8-1,1.2-2,1.8c-.6.4-.9.7-1.1.8s-.4.4-.7.6h4.3v2.3h.2Z" style="fill: #fff;"/>
    <path d="m161.2,506.4c0-1.9.3-3.2,1-4s1.7-1.1,3.1-1.1,1.2.1,1.7.2c.4.2.8.4,1.1.7.3.3.5.5.6.8.2.3.3.6.4,1,.2.7.3,1.5.3,2.3,0,1.8-.3,3.1-.9,4s-1.7,1.3-3.2,1.3-1.5-.1-2-.4-.9-.7-1.3-1.2c-.2-.4-.4-.9-.6-1.5-.1-.6-.2-1.3-.2-2.1Zm2.8,0c0,1.3.1,2.1.3,2.6s.6.7,1,.7.5-.1.7-.3c.2-.2.4-.5.5-.9s.1-1.1.1-2c0-1.3-.1-2.2-.3-2.7s-.6-.7-1-.7-.8.2-1,.7c-.2.5-.3,1.4-.3,2.6Z" style="fill: #fff;"/>
    <path d="m170.5,506.4c0-1.9.3-3.2,1-4s1.7-1.1,3.1-1.1,1.2.1,1.7.2c.4.2.8.4,1.1.7.3.3.5.5.6.8.2.3.3.6.4,1,.2.7.3,1.5.3,2.3,0,1.8-.3,3.1-.9,4s-1.7,1.3-3.2,1.3-1.5-.1-2-.4-.9-.7-1.3-1.2c-.2-.4-.4-.9-.6-1.5-.1-.6-.2-1.3-.2-2.1Zm2.8,0c0,1.3.1,2.1.3,2.6s.6.7,1,.7.5-.1.7-.3c.2-.2.4-.5.5-.9s.1-1.1.1-2c0-1.3-.1-2.2-.3-2.7s-.6-.7-1-.7-.8.2-1,.7c-.2.5-.3,1.4-.3,2.6Z" style="fill: #fff;"/>
    <path d="m180.2,504.2h2.6v1.1c.4-.4.8-.8,1.1-.9.4-.2.8-.3,1.4-.3s1,.1,1.4.3c.3.2.6.5.8.9.4-.5.8-.8,1.2-1s.8-.3,1.3-.3c.8,0,1.4.2,1.8.7.4.5.7,1.2.7,2.2v4.6h-2.8v-4.1c0-.3-.1-.6-.2-.7-.2-.3-.4-.4-.7-.4s-.6.1-.8.4-.3.6-.3,1.1v3.7h-2.8v-4c0-.3,0-.5-.1-.6-.1-.2-.2-.3-.3-.4s-.3-.2-.5-.2c-.3,0-.6.1-.8.4-.2.2-.3.6-.3,1.2v3.7h-2.8v-7.4h.1Z" style="fill: #fff;"/>
    <path d="m194.2,504.2h2.6v1.1c.4-.4.8-.8,1.1-.9.4-.2.8-.3,1.4-.3s1,.1,1.4.3c.3.2.6.5.8.9.4-.5.8-.8,1.2-1s.8-.3,1.3-.3c.8,0,1.4.2,1.8.7.4.5.7,1.2.7,2.2v4.6h-2.8v-4.1c0-.3-.1-.6-.2-.7-.2-.3-.4-.4-.7-.4s-.6.1-.8.4-.3.6-.3,1.1v3.7h-2.8v-4c0-.3,0-.5-.1-.6-.1-.2-.2-.3-.3-.4s-.3-.2-.5-.2c-.3,0-.6.1-.8.4-.2.2-.3.6-.3,1.2v3.7h-2.8v-7.4h.1Z" style="fill: #fff;"/>
    <path d="m212.4,506.8h-4.9c.1-.5.2-.9.5-1.4.3-.4.8-.9,1.6-1.5.5-.4.8-.6.9-.8s.2-.4.2-.5c0-.2-.1-.3-.2-.5-.1-.1-.3-.2-.5-.2s-.4.1-.5.2-.2.4-.3.7h-1.6c.1-.6.2-.9.4-1.2.2-.3.4-.5.7-.6s.7-.2,1.3-.2,1,.1,1.3.2.6.3.7.6c.2.3.3.6.3.9s-.1.7-.3,1-.6.7-1.1,1.1c-.3.2-.5.4-.7.5-.1.1-.2.2-.4.4h2.5v1.3h.1Z" style="fill: #fff;"/>
  </g>
  <g>
    <path d="m-2.8-2.8v566.9h566.9V-2.8H-2.8Zm431.1,518.6c0,4.4-2.4,8.2-5.9,10.3-1.8,1-3.9,1.7-6.1,1.7H144.9c-2.2,0-4.2-.6-6-1.6-3.6-2.1-6-6-6-10.4v-16.8c0-4.4,2.4-8.3,6-10.4,1.8-1,3.8-1.6,6-1.6h271.4c2.2,0,4.3.6,6.1,1.7,3.5,2.1,5.9,6,5.9,10.3v16.8Zm-339.8,0c0,4.5-2.5,8.5-6.3,10.5-1.7.9-3.6,1.5-5.7,1.5h-16.7c-2.1,0-4.2-.6-5.9-1.6-2.3-1.3-4.2-3.4-5.2-5.9-.6-1.4-.9-2.9-.9-4.5v-16.7c0-1.6.3-3.1.9-4.5,1-2.5,2.9-4.6,5.2-5.9,1.8-1,3.8-1.6,5.9-1.6h16.7c2.1,0,4,.5,5.7,1.4,3.8,2,6.3,6,6.3,10.6v16.7Z" style="fill: none; stroke: #fff; stroke-miterlimit: 10; stroke-width: .2px;"/>
    <polyline points="-2.8 535.8 25.5 535.8 53.9 535.8 82.2 535.8 110.6 535.8 138.9 535.8 167.3 535.8 195.6 535.8 224 535.8 252.3 535.8 280.7 535.8 309 535.8 337.3 535.8 365.7 535.8 394 535.8 422.4 535.8 450.7 535.8 479.1 535.8 507.4 535.8 535.8 535.8 564.1 535.8" style="fill: none; stroke: #fff; stroke-miterlimit: 10; stroke-width: .2px;"/>
    <path d="m428.3,499v16.8c0,4.4-2.4,8.2-5.9,10.3-1.8,1-3.9,1.7-6.1,1.7H144.9c-2.2,0-4.2-.6-6-1.6-3.6-2.1-6-6-6-10.4v-16.8c0-4.4,2.4-8.3,6-10.4,1.8-1,3.8-1.6,6-1.6h271.4c2.2,0,4.3.6,6.1,1.7,3.5,2.1,5.9,6,5.9,10.3Z" style="fill: none; stroke: #fff; stroke-miterlimit: 10; stroke-width: .8px;"/>
    <polyline points="88.5 507.4 110.6 507.4 132.9 507.4" style="fill: none; stroke: #fff; stroke-miterlimit: 10; stroke-width: .2px;"/>
    <polyline points="428.3 507.4 450.7 507.4 479.1 507.4 507.4 507.4 535.8 507.4 564.1 507.4" style="fill: none; stroke: #fff; stroke-miterlimit: 10; stroke-width: .2px;"/>
    <polyline points="47.8 507.4 25.5 507.4 -2.8 507.4" style="fill: none; stroke: #fff; stroke-miterlimit: 10; stroke-width: .2px;"/>
    <line x1="-2.8" y1="479.1" x2="564.1" y2="479.1" style="fill: none; stroke: #fff; stroke-miterlimit: 10; stroke-width: .2px;"/>
    <line x1="-2.8" y1="450.7" x2="564.1" y2="450.7" style="fill: none; stroke: #fff; stroke-miterlimit: 10; stroke-width: .2px;"/>
    <line x1="-2.8" y1="422.4" x2="564.1" y2="422.4" style="fill: none; stroke: #fff; stroke-miterlimit: 10; stroke-width: .2px;"/>
    <line x1="-2.8" y1="394" x2="564.1" y2="394" style="fill: none; stroke: #fff; stroke-miterlimit: 10; stroke-width: .2px;"/>
    <line x1="-2.8" y1="365.7" x2="564.1" y2="365.7" style="fill: none; stroke: #fff; stroke-miterlimit: 10; stroke-width: .2px;"/>
    <line x1="-2.8" y1="337.3" x2="564.1" y2="337.3" style="fill: none; stroke: #fff; stroke-miterlimit: 10; stroke-width: .2px;"/>
    <line x1="-2.8" y1="309" x2="564.1" y2="309" style="fill: none; stroke: #fff; stroke-miterlimit: 10; stroke-width: .2px;"/>
    <line x1="-2.8" y1="280.6" x2="564.1" y2="280.6" style="fill: none; stroke: #fff; stroke-miterlimit: 10; stroke-width: .2px;"/>
    <line x1="-2.8" y1="252.3" x2="564.1" y2="252.3" style="fill: none; stroke: #fff; stroke-miterlimit: 10; stroke-width: .2px;"/>
    <line x1="-2.8" y1="224" x2="564.1" y2="224" style="fill: none; stroke: #fff; stroke-miterlimit: 10; stroke-width: .2px;"/>
    <line x1="-2.8" y1="195.6" x2="564.1" y2="195.6" style="fill: none; stroke: #fff; stroke-miterlimit: 10; stroke-width: .2px;"/>
    <line x1="-2.8" y1="167.3" x2="564.1" y2="167.3" style="fill: none; stroke: #fff; stroke-miterlimit: 10; stroke-width: .2px;"/>
    <line x1="-2.8" y1="138.9" x2="564.1" y2="138.9" style="fill: none; stroke: #fff; stroke-miterlimit: 10; stroke-width: .2px;"/>
    <line x1="-2.8" y1="110.6" x2="564.1" y2="110.6" style="fill: none; stroke: #fff; stroke-miterlimit: 10; stroke-width: .2px;"/>
    <line x1="-2.8" y1="82.2" x2="564.1" y2="82.2" style="fill: none; stroke: #fff; stroke-miterlimit: 10; stroke-width: .2px;"/>
    <line x1="-2.8" y1="53.9" x2="564.1" y2="53.9" style="fill: none; stroke: #fff; stroke-miterlimit: 10; stroke-width: .2px;"/>
    <line x1="-2.8" y1="25.5" x2="564.1" y2="25.5" style="fill: none; stroke: #fff; stroke-miterlimit: 10; stroke-width: .2px;"/>
    <line x1="535.8" y1="-2.8" x2="535.8" y2="564.1" style="fill: none; stroke: #fff; stroke-miterlimit: 10; stroke-width: .2px;"/>
    <line x1="507.4" y1="-2.8" x2="507.4" y2="564.1" style="fill: none; stroke: #fff; stroke-miterlimit: 10; stroke-width: .2px;"/>
    <line x1="479.1" y1="-2.8" x2="479.1" y2="564.1" style="fill: none; stroke: #fff; stroke-miterlimit: 10; stroke-width: .2px;"/>
    <line x1="450.7" y1="-2.8" x2="450.7" y2="564.1" style="fill: none; stroke: #fff; stroke-miterlimit: 10; stroke-width: .2px;"/>
    <polyline points="422.4 564.1 422.4 535.8 422.4 526.1" style="fill: none; stroke: #fff; stroke-miterlimit: 10; stroke-width: .2px;"/>
    <polyline points="422.4 488.7 422.4 479.1 422.4 450.7 422.4 422.4 422.4 394 422.4 365.7 422.4 337.3 422.4 309 422.4 280.7 422.4 252.3 422.4 224 422.4 195.6 422.4 167.3 422.4 138.9 422.4 110.6 422.4 82.2 422.4 53.9 422.4 25.5 422.4 -2.8" style="fill: none; stroke: #fff; stroke-miterlimit: 10; stroke-width: .2px;"/>
    <polyline points="394 564.1 394 535.8 394 527.8" style="fill: none; stroke: #fff; stroke-miterlimit: 10; stroke-width: .2px;"/>
    <polyline points="394 487 394 479.1 394 450.7 394 422.4 394 394 394 365.7 394 337.3 394 309 394 280.7 394 252.3 394 224 394 195.6 394 167.3 394 138.9 394 110.6 394 82.2 394 53.9 394 25.5 394 -2.8" style="fill: none; stroke: #fff; stroke-miterlimit: 10; stroke-width: .2px;"/>
    <polyline points="365.7 564.1 365.7 535.8 365.7 527.8" style="fill: none; stroke: #fff; stroke-miterlimit: 10; stroke-width: .2px;"/>
    <polyline points="365.7 487 365.7 479.1 365.7 450.7 365.7 422.4 365.7 394 365.7 365.7 365.7 337.3 365.7 309 365.7 280.7 365.7 252.3 365.7 224 365.7 195.6 365.7 167.3 365.7 138.9 365.7 110.6 365.7 82.2 365.7 53.9 365.7 25.5 365.7 -2.8" style="fill: none; stroke: #fff; stroke-miterlimit: 10; stroke-width: .2px;"/>
    <polyline points="337.3 564.1 337.3 535.8 337.3 527.8" style="fill: none; stroke: #fff; stroke-miterlimit: 10; stroke-width: .2px;"/>
    <polyline points="337.3 487 337.3 479.1 337.3 450.7 337.3 422.4 337.3 394 337.3 365.7 337.3 337.3 337.3 309 337.3 280.7 337.3 252.3 337.3 224 337.3 195.6 337.3 167.3 337.3 138.9 337.3 110.6 337.3 82.2 337.3 53.9 337.3 25.5 337.3 -2.8" style="fill: none; stroke: #fff; stroke-miterlimit: 10; stroke-width: .2px;"/>
    <polyline points="309 564.1 309 535.8 309 527.8" style="fill: none; stroke: #fff; stroke-miterlimit: 10; stroke-width: .2px;"/>
    <polyline points="309 487 309 479.1 309 450.7 309 422.4 309 394 309 365.7 309 337.3 309 309 309 280.7 309 252.3 309 224 309 195.6 309 167.3 309 138.9 309 110.6 309 82.2 309 53.9 309 25.5 309 -2.8" style="fill: none; stroke: #fff; stroke-miterlimit: 10; stroke-width: .2px;"/>
    <polyline points="280.7 564.1 280.7 535.8 280.7 527.8" style="fill: none; stroke: #fff; stroke-miterlimit: 10; stroke-width: .2px;"/>
    <polyline points="280.7 487 280.7 479.1 280.7 450.7 280.7 422.4 280.7 394 280.7 365.7 280.7 337.3 280.7 309 280.7 280.7 280.7 252.3 280.7 224 280.7 195.6 280.7 167.3 280.7 138.9 280.7 110.6 280.7 82.2 280.7 53.9 280.7 25.5 280.7 -2.8" style="fill: none; stroke: #fff; stroke-miterlimit: 10; stroke-width: .2px;"/>
    <polyline points="252.3 564.1 252.3 535.8 252.3 527.8" style="fill: none; stroke: #fff; stroke-miterlimit: 10; stroke-width: .2px;"/>
    <polyline points="252.3 487 252.3 479.1 252.3 450.7 252.3 422.4 252.3 394 252.3 365.7 252.3 337.3 252.3 309 252.3 280.7 252.3 252.3 252.3 224 252.3 195.6 252.3 167.3 252.3 138.9 252.3 110.6 252.3 82.2 252.3 53.9 252.3 25.5 252.3 -2.8" style="fill: none; stroke: #fff; stroke-miterlimit: 10; stroke-width: .2px;"/>
    <polyline points="224 564.1 224 535.8 224 527.8" style="fill: none; stroke: #fff; stroke-miterlimit: 10; stroke-width: .2px;"/>
    <polyline points="224 487 224 479.1 224 450.7 224 422.4 224 394 224 365.7 224 337.3 224 309 224 280.7 224 252.3 224 224 224 195.6 224 167.3 224 138.9 224 110.6 224 82.2 224 53.9 224 25.5 224 -2.8" style="fill: none; stroke: #fff; stroke-miterlimit: 10; stroke-width: .2px;"/>
    <polyline points="195.6 564.1 195.6 535.8 195.6 527.8" style="fill: none; stroke: #fff; stroke-miterlimit: 10; stroke-width: .2px;"/>
    <polyline points="195.6 487 195.6 479.1 195.6 450.7 195.6 422.4 195.6 394 195.6 365.7 195.6 337.3 195.6 309 195.6 280.7 195.6 252.3 195.6 224 195.6 195.6 195.6 167.3 195.6 138.9 195.6 110.6 195.6 82.2 195.6 53.9 195.6 25.5 195.6 -2.8" style="fill: none; stroke: #fff; stroke-miterlimit: 10; stroke-width: .2px;"/>
    <polyline points="167.3 564.1 167.3 535.8 167.3 527.8" style="fill: none; stroke: #fff; stroke-miterlimit: 10; stroke-width: .2px;"/>
    <polyline points="167.3 487 167.3 479.1 167.3 450.7 167.3 422.4 167.3 394 167.3 365.7 167.3 337.3 167.3 309 167.3 280.7 167.3 252.3 167.3 224 167.3 195.6 167.3 167.3 167.3 138.9 167.3 110.6 167.3 82.2 167.3 53.9 167.3 25.5 167.3 -2.8" style="fill: none; stroke: #fff; stroke-miterlimit: 10; stroke-width: .2px;"/>
    <polyline points="138.9 564.1 138.9 535.8 138.9 526.2" style="fill: none; stroke: #fff; stroke-miterlimit: 10; stroke-width: .2px;"/>
    <polyline points="138.9 488.6 138.9 479.1 138.9 450.7 138.9 422.4 138.9 394 138.9 365.7 138.9 337.3 138.9 309 138.9 280.7 138.9 252.3 138.9 224 138.9 195.6 138.9 167.3 138.9 138.9 138.9 110.6 138.9 82.2 138.9 53.9 138.9 25.5 138.9 -2.8" style="fill: none; stroke: #fff; stroke-miterlimit: 10; stroke-width: .2px;"/>
    <line x1="110.6" y1="-2.8" x2="110.6" y2="564.1" style="fill: none; stroke: #fff; stroke-miterlimit: 10; stroke-width: .2px;"/>
    <polyline points="82.2 564.1 82.2 535.8 82.2 526.2" style="fill: none; stroke: #fff; stroke-miterlimit: 10; stroke-width: .2px;"/>
    <polyline points="82.2 488.4 82.2 479.1 82.2 450.7 82.2 422.4 82.2 394 82.2 365.7 82.2 337.3 82.2 309 82.2 280.7 82.2 252.3 82.2 224 82.2 195.6 82.2 167.3 82.2 138.9 82.2 110.6 82.2 82.2 82.2 53.9 82.2 25.5 82.2 -2.8" style="fill: none; stroke: #fff; stroke-miterlimit: 10; stroke-width: .2px;"/>
    <polyline points="53.9 564.1 53.9 535.8 53.9 526.1" style="fill: none; stroke: #fff; stroke-miterlimit: 10; stroke-width: .2px;"/>
    <polyline points="53.9 488.6 53.9 479.1 53.9 450.7 53.9 422.4 53.9 394 53.9 365.7 53.9 337.3 53.9 309 53.9 280.7 53.9 252.3 53.9 224 53.9 195.6 53.9 167.3 53.9 138.9 53.9 110.6 53.9 82.2 53.9 53.9 53.9 25.5 53.9 -2.8" style="fill: none; stroke: #fff; stroke-miterlimit: 10; stroke-width: .2px;"/>
    <path d="m88.5,499v16.7c0,4.5-2.5,8.5-6.3,10.5-1.7.9-3.6,1.5-5.7,1.5h-16.7c-2.1,0-4.2-.6-5.9-1.6-2.3-1.3-4.2-3.4-5.2-5.9-.6-1.4-.9-2.9-.9-4.5v-16.7c0-1.6.3-3.1.9-4.5,1-2.5,2.9-4.6,5.2-5.9,1.8-1,3.8-1.6,5.9-1.6h16.7c2.1,0,4,.5,5.7,1.4,3.8,2,6.3,6,6.3,10.6Z" style="fill: none; stroke: #fff; stroke-miterlimit: 10; stroke-width: .8px;"/>
    <polyline points="25.5 564.1 25.5 535.8 25.5 507.4 25.5 479.1 25.5 450.7 25.5 422.4 25.5 394 25.5 365.7 25.5 337.3 25.5 309 25.5 280.7 25.5 252.3 25.5 224 25.5 195.6 25.5 167.3 25.5 138.9 25.5 110.6 25.5 82.2 25.5 53.9 25.5 25.5 25.5 -2.8" style="fill: none; stroke: #fff; stroke-miterlimit: 10; stroke-width: .2px;"/>
  </g>
</svg>