<?xml version="1.0" encoding="UTF-8"?>
<svg id="a" xmlns="http://www.w3.org/2000/svg" width="178mm" height="178mm" viewBox="0 0 504.6 504.6">
  <rect x="104.6" y="458.7" width="295.4" height="40.8" rx="12" ry="12" style="fill: none; stroke: #fff; stroke-miterlimit: 10; stroke-width: .8px;"/>
  <g>
    <path d="m129.8,472.9v10.2h-2.8v-6.7c-.5.3-.9.6-1.3.8s-1,.4-1.6.6v-2.3c.9-.3,1.7-.7,2.2-1.1s.9-1,1.2-1.6h2.3Z" style="fill: #fff;"/>
    <path d="m134.5,477.7c-.4-.2-.8-.5-1-.8-.3-.4-.4-.8-.4-1.4s.4-1.5,1.2-2.1c.6-.4,1.4-.6,2.4-.6s2.3.3,3,.8,1,1.2,1,1.9,0,.9-.4,1.3c-.2.3-.5.6-.9.8.5.3.9.6,1.2,1s.4.9.4,1.4,0,1-.3,1.4-.5.8-.8,1-.8.4-1.3.5-1,.2-1.6.2c-1.1,0-1.9,0-2.4-.4s-1-.6-1.3-1.1-.4-1-.4-1.6,0-1.1.4-1.5c.3-.4.7-.7,1.3-.9h0Zm1.1,2.3c0,.4,0,.8.4,1.1.3.3.6.4.9.4s.6,0,.9-.4c.3-.3.4-.6.4-1.1s0-.8-.4-1.1-.6-.4-.9-.4-.6,0-.9.4-.4.6-.4,1.1Zm.2-4.3c0,.3,0,.6.3.8.2.2.5.3.9.3s.6,0,.8-.3.3-.5.3-.8,0-.6-.3-.8c-.2-.2-.5-.3-.8-.3s-.6,0-.8.3c-.2.2-.3.5-.3.8h0Z" style="fill: #fff;"/>
    <path d="m142.2,478.1c0-1.9.3-3.2,1-4s1.7-1.1,3.1-1.1,1.2,0,1.7.2c.4.2.8.4,1.1.7.3.3.5.5.6.8.2.3.3.6.4,1,.2.7.3,1.5.3,2.3,0,1.8-.3,3.1-.9,4s-1.7,1.3-3.2,1.3-1.5,0-2-.4-.9-.7-1.3-1.2c-.2-.4-.4-.9-.6-1.5,0-.6-.2-1.3-.2-2.1h0Zm2.8,0c0,1.3,0,2.1.3,2.6s.6.7,1,.7.5,0,.7-.3c.2-.2.4-.5.5-.9s0-1.1,0-2c0-1.3,0-2.2-.3-2.7s-.6-.7-1-.7-.8.2-1,.7-.3,1.3-.3,2.6h0Z" style="fill: #fff;"/>
    <path d="m151.8,475.8h2.6v1.1c.4-.4.8-.8,1.1-.9.4-.2.8-.3,1.4-.3s1,0,1.4.3c.3.2.6.5.8.9.4-.5.8-.8,1.2-1s.8-.3,1.3-.3c.8,0,1.4.2,1.8.7.4.5.7,1.2.7,2.2v4.6h-2.8v-4.1c0-.3,0-.6-.2-.7-.2-.3-.4-.4-.7-.4s-.6,0-.8.4-.3.6-.3,1.1v3.7h-2.8v-4.6c0-.2-.2-.3-.3-.4s-.3-.2-.5-.2c-.3,0-.6,0-.8.4-.2.2-.3.6-.3,1.2v3.7h-2.8v-7.3h0Z" style="fill: #fff;"/>
    <path d="m165.8,475.8h2.6v1.1c.4-.4.8-.8,1.1-.9.4-.2.8-.3,1.4-.3s1,0,1.4.3c.3.2.6.5.8.9.4-.5.8-.8,1.2-1s.8-.3,1.3-.3c.8,0,1.4.2,1.8.7.4.5.7,1.2.7,2.2v4.6h-2.8v-4.1c0-.3,0-.6-.2-.7-.2-.3-.4-.4-.7-.4s-.6,0-.8.4-.3.6-.3,1.1v3.7h-2.8v-4.6c0-.2-.2-.3-.3-.4s-.3-.2-.5-.2c-.3,0-.6,0-.8.4-.2.2-.3.6-.3,1.2v3.7h-2.8v-7.3h0Z" style="fill: #fff;"/>
    <path d="m184,478.4h-4.9c0-.5.2-.9.5-1.4.3-.4.8-.9,1.6-1.5.5-.4.8-.6.9-.8s.2-.4.2-.5,0-.3-.2-.5c0,0-.3-.2-.5-.2s-.4,0-.5.2c0,0-.2.4-.3.7h-1.6c0-.6.2-.9.4-1.2.2-.3.4-.5.7-.6s.7-.2,1.3-.2,1,0,1.3.2c.3,0,.6.3.7.6.2.3.3.6.3.9s0,.7-.3,1-.6.7-1.1,1.1c-.3.2-.5.4-.7.5,0,0-.2.2-.4.4h2.5v1.3h0Z" style="fill: #fff;"/>
    <path d="m190.1,473.1h5.8c1,0,1.7.2,2.2.7s.8,1.1.8,1.8-.2,1.1-.6,1.5c-.2.3-.6.5-1.1.7.7.2,1.2.5,1.6.9.3.4.5,1,.5,1.6s0,1-.4,1.4-.6.7-1,1c-.3.2-.7.3-1.2.3s-1.2,0-1.4,0h-5.3v-10h0Zm3.1,3.9h1.3c.5,0,.8,0,1-.2s.3-.4.3-.7,0-.5-.3-.7-.5-.2-1-.2h-1.4v1.9h0Zm0,3.9h1.6c.5,0,.9,0,1.1-.3.2-.2.3-.4.3-.8s0-.5-.3-.7-.6-.3-1.1-.3h-1.6v2h0Z" style="fill: #fff;"/>
    <path d="m208.4,483.1h-2.6v-1.2c-.4.5-.8.8-1.2,1s-.9.3-1.5.3-1.4-.2-1.8-.7c-.4-.5-.7-1.2-.7-2.1v-4.6h2.8v4c0,.5,0,.8.3,1s.4.3.7.3.6,0,.8-.4.3-.7.3-1.4v-3.5h2.8v7.3h0Z" style="fill: #fff;"/>
    <path d="m210.2,473.1h2.8v1.9h-2.8v-1.9Zm0,2.8h2.8v7.3h-2.8v-7.3Z" style="fill: #fff;"/>
    <path d="m214.9,473.1h2.8v10h-2.8v-10Z" style="fill: #fff;"/>
    <path d="m227.1,473.1v10h-2.6v-1.1c-.4.5-.7.8-1,.9-.4.2-.8.3-1.3.3-1,0-1.7-.4-2.3-1.1-.5-.8-.8-1.7-.8-2.7s.3-2.1.9-2.8c.6-.6,1.3-1,2.2-1s.8,0,1.2.2c.4,0,.7.4.9.7v-3.5h2.8Zm-2.8,6.4c0-.6,0-1-.4-1.3-.2-.3-.5-.4-.9-.4s-.6,0-.8.4-.3.7-.3,1.4,0,1,.3,1.3.5.4.8.4.7,0,.9-.4.4-.7.4-1.4Z" style="fill: #fff;"/>
    <path d="m233.6,473.1h5.1c1.1,0,2,.3,2.5.8.6.5.8,1.3.8,2.3s-.3,1.8-.9,2.4c-.6.6-1.5.9-2.8.9h-1.7v3.7h-3.1v-10h0Zm3.1,4.3h.8c.6,0,1,0,1.3-.3.2-.2.4-.5.4-.8s0-.6-.3-.8-.6-.3-1.2-.3h-.9v2.2h0Z" style="fill: #fff;"/>
    <path d="m243.7,473.1h2.8v10h-2.8v-10Z" style="fill: #fff;"/>
    <path d="m250.8,478.2l-2.7-.3c0-.5.2-.8.4-1.1.2-.3.5-.5.8-.7.3,0,.6-.3,1.1-.3s.9,0,1.4,0c.8,0,1.5,0,2,0,.5,0,.9.3,1.3.6.2.2.4.5.6.9,0,.4.2.7.2,1.1v4c0,.2,0,.4.3.7h-2.6c0-.2-.2-.3-.2-.4v-.5c-.4.4-.7.6-1.1.8-.5.2-1.1.3-1.7.3s-1.5-.2-2-.6c-.4-.4-.7-.9-.7-1.5s.2-1,.5-1.4.9-.6,1.8-.8c1-.2,1.7-.4,2-.4s.6-.2,1-.3c0-.3,0-.6-.2-.7s-.4-.2-.7-.2-.8,0-1,.2c-.2,0-.3.3-.4.6h-.1Zm2.4,1.5c-.4,0-.8.3-1.2.4-.6.2-.9.3-1.1.4-.2.2-.2.3-.2.5s0,.4.2.5.4.2.7.2.6,0,.9-.2c.3-.2.5-.3.6-.5s.2-.5.2-.8v-.4h0Z" style="fill: #fff;"/>
    <path d="m260.7,473.1v2.8h1.5v2h-1.5v3.2c0,.2.3.2.5.2s.5,0,.9-.2l.2,1.9c-.7.2-1.3.2-1.9.2s-1.2,0-1.5-.3c-.3-.2-.6-.4-.7-.8-.2-.4-.2-.9-.2-1.8v-2.6h-1v-2h1v-1.3l2.8-1.4h0Z" style="fill: #fff;"/>
    <path d="m271.6,480.2h-5.6c0,.4.2.8.4,1,.3.3.6.5,1.1.5s.5,0,.8-.2c.2,0,.3-.2.5-.5l2.7.3c-.4.7-.9,1.3-1.5,1.6-.6.3-1.4.5-2.5.5s-1.7,0-2.3-.4c-.6-.3-1-.7-1.4-1.3-.4-.6-.5-1.3-.5-2.1s.4-2.1,1.1-2.8c.7-.7,1.7-1.1,3-1.1s1.9.2,2.5.5,1.1.8,1.4,1.4.5,1.4.5,2.3v.3h-.2Zm-2.8-1.3c0-.5-.2-.9-.4-1.2-.2-.2-.5-.3-.9-.3s-.8.2-1.1.5c-.2.2-.3.5-.3,1h2.7,0Z" style="fill: #fff;"/>
    <path d="m282.5,473.1h1.7v12.8h-1.7v-12.8Z" style="fill: #fff;"/>
    <path d="m301.5,472.9v10.2h-2.8v-6.7c-.5.3-.9.6-1.3.8-.4.2-1,.4-1.6.6v-2.3c.9-.3,1.7-.7,2.2-1.1s.9-1,1.2-1.6h2.3,0Z" style="fill: #fff;"/>
    <path d="m304.5,478.1c0-1.9.3-3.2,1-4s1.7-1.1,3.1-1.1,1.2,0,1.7.2c.4.2.8.4,1.1.7s.5.5.6.8c.2.3.3.6.4,1,.2.7.3,1.5.3,2.3,0,1.8-.3,3.1-.9,4s-1.7,1.3-3.2,1.3-1.5,0-2-.4-.9-.7-1.3-1.2c-.2-.4-.4-.9-.6-1.5,0-.6-.2-1.3-.2-2.1h0Zm2.8,0c0,1.3,0,2.1.3,2.6.2.5.6.7,1,.7s.5,0,.7-.3c.2-.2.4-.5.5-.9,0-.4,0-1.1,0-2,0-1.3,0-2.2-.3-2.7-.2-.5-.6-.7-1-.7s-.8.2-1,.7-.3,1.3-.3,2.6h0Z" style="fill: #fff;"/>
    <path d="m314.1,475.8h2.6v1.1c.4-.4.8-.8,1.1-.9s.8-.3,1.4-.3,1,0,1.4.3.6.5.8.9c.4-.5.8-.8,1.2-1,.4-.2.8-.3,1.3-.3.8,0,1.4.2,1.8.7s.7,1.2.7,2.2v4.6h-2.8v-4.1c0-.3,0-.6-.2-.7-.2-.3-.4-.4-.7-.4s-.6,0-.8.4-.3.6-.3,1.1v3.7h-2.8v-4.6c0-.2-.2-.3-.3-.4,0,0-.3-.2-.5-.2-.3,0-.6,0-.8.4s-.3.6-.3,1.2v3.7h-2.8v-7.3h0Z" style="fill: #fff;"/>
    <path d="m328.1,475.8h2.6v1.1c.4-.4.8-.8,1.1-.9s.8-.3,1.4-.3,1,0,1.4.3.6.5.8.9c.4-.5.8-.8,1.2-1,.4-.2.8-.3,1.3-.3.8,0,1.4.2,1.8.7s.7,1.2.7,2.2v4.6h-2.8v-4.1c0-.3,0-.6-.2-.7-.2-.3-.4-.4-.7-.4s-.6,0-.8.4-.3.6-.3,1.1v3.7h-2.8v-4.6c0-.2-.2-.3-.3-.4,0,0-.3-.2-.5-.2-.3,0-.6,0-.8.4s-.3.6-.3,1.2v3.7h-2.8v-7.3h0Z" style="fill: #fff;"/>
    <path d="m346.4,478.4h-4.9c0-.5.2-.9.5-1.4.3-.4.8-.9,1.6-1.5.5-.4.8-.6.9-.8,0-.2.2-.4.2-.5s0-.3-.2-.5-.3-.2-.5-.2-.4,0-.5.2c0,0-.2.4-.3.7h-1.6c0-.6.2-.9.4-1.2.2-.3.4-.5.7-.6.3,0,.7-.2,1.3-.2s1,0,1.3.2c.3,0,.6.3.7.6.2.3.3.6.3.9s0,.7-.3,1c-.2.3-.6.7-1.1,1.1-.3.2-.5.4-.7.5,0,0-.2.2-.4.4h2.5v1.3h0Z" style="fill: #fff;"/>
    <path d="m357.4,479.5v-2.1h4.8v4.3c-.9.6-1.7,1-2.4,1.3-.7.2-1.5.3-2.5.3s-2.2-.2-2.9-.6c-.7-.4-1.3-1-1.7-1.8-.4-.8-.6-1.7-.6-2.8s.2-2,.7-2.9c.5-.8,1.1-1.4,2-1.8.7-.3,1.6-.5,2.7-.5s1.9,0,2.5.3c.5.2,1,.5,1.4.9s.6,1,.8,1.6l-3,.5c0-.4-.3-.7-.6-.9-.3-.2-.7-.3-1.1-.3-.7,0-1.2.2-1.6.7s-.6,1.2-.6,2.2.2,1.9.6,2.3c.4.5,1,.7,1.7.7s.7,0,1-.2.7-.3,1.1-.5v-.9h-2.1l-.2.2Z" style="fill: #fff;"/>
    <path d="m363.9,475.8h2.6v1.2c.3-.5.5-.9.8-1.1s.6-.3,1-.3.9,0,1.3.4l-.9,2c-.3,0-.6-.2-.8-.2-.4,0-.6.2-.8.5-.3.4-.4,1.2-.4,2.4v2.4h-2.8v-7.3h0Z" style="fill: #fff;"/>
    <path d="m370.2,473.1h2.8v1.9h-2.8v-1.9Zm0,2.8h2.8v7.3h-2.8v-7.3Z" style="fill: #fff;"/>
    <path d="m382.4,473.1v10h-2.6v-1.1c-.4.5-.7.8-1,.9-.4.2-.8.3-1.3.3-1,0-1.7-.4-2.3-1.1-.5-.8-.8-1.7-.8-2.7s.3-2.1.9-2.8c.6-.6,1.3-1,2.2-1s.8,0,1.2.2c.4,0,.7.4.9.7v-3.5h2.8,0Zm-2.8,6.4c0-.6,0-1-.4-1.3-.2-.3-.5-.4-.9-.4s-.6,0-.8.4-.3.7-.3,1.4,0,1,.3,1.3c.2.3.5.4.8.4s.7,0,.9-.4.4-.7.4-1.4Z" style="fill: #fff;"/>
  </g>
  <g>
    <path d="m503.9,498.2c0,3.1-2.5,5.7-5.7,5.7H6.4c-3.1,0-5.7-2.5-5.7-5.7V6.4C.7,3.3,3.3.7,6.4.7h491.8c3.1,0,5.7,2.5,5.7,5.7v491.8Z" style="fill: none; stroke: #fff; stroke-miterlimit: 10; stroke-width: .5px;"/>
    <polyline points="503.9 479.1 479.1 479.1 450.7 479.1 422.4 479.1 400 479.1" style="fill: none; stroke: #fff; stroke-miterlimit: 10; stroke-width: .2px;"/>
    <line x1="60.2" y1="479.1" x2="104.6" y2="479.1" style="fill: none; stroke: #fff; stroke-miterlimit: 10; stroke-width: .2px;"/>
    <line x1="19.5" y1="479.1" x2=".7" y2="479.1" style="fill: none; stroke: #fff; stroke-miterlimit: 10; stroke-width: .2px;"/>
    <polyline points=".7 450.7 25.5 450.7 53.9 450.7 82.2 450.7 110.6 450.7 138.9 450.7 167.2 450.7 195.6 450.7 223.9 450.7 252.3 450.7 280.6 450.7 309 450.7 337.3 450.7 365.7 450.7 394 450.7 422.4 450.7 450.7 450.7 479.1 450.7 503.9 450.7" style="fill: none; stroke: #fff; stroke-miterlimit: 10; stroke-width: .2px;"/>
    <polyline points=".7 422.4 25.5 422.4 53.9 422.4 82.2 422.4 110.6 422.4 138.9 422.4 167.2 422.4 195.6 422.4 223.9 422.4 252.3 422.4 280.6 422.4 309 422.4 337.3 422.4 365.7 422.4 394 422.4 422.4 422.4 450.7 422.4 479.1 422.4 503.9 422.4" style="fill: none; stroke: #fff; stroke-miterlimit: 10; stroke-width: .2px;"/>
    <polyline points=".7 394 25.5 394 53.9 394 82.2 394 110.6 394 138.9 394 167.2 394 195.6 394 223.9 394 252.3 394 280.6 394 309 394 337.3 394 365.7 394 394 394 422.4 394 450.7 394 479.1 394 503.9 394" style="fill: none; stroke: #fff; stroke-miterlimit: 10; stroke-width: .2px;"/>
    <polyline points=".7 365.7 25.5 365.7 53.9 365.7 82.2 365.7 110.6 365.7 138.9 365.7 167.2 365.7 195.6 365.7 223.9 365.7 252.3 365.7 280.6 365.7 309 365.7 337.3 365.7 365.7 365.7 394 365.7 422.4 365.7 450.7 365.7 479.1 365.7 503.9 365.7" style="fill: none; stroke: #fff; stroke-miterlimit: 10; stroke-width: .2px;"/>
    <polyline points=".7 337.3 25.5 337.3 53.9 337.3 82.2 337.3 110.6 337.3 138.9 337.3 167.2 337.3 195.6 337.3 223.9 337.3 252.3 337.3 280.6 337.3 309 337.3 337.3 337.3 365.7 337.3 394 337.3 422.4 337.3 450.7 337.3 479.1 337.3 503.9 337.3" style="fill: none; stroke: #fff; stroke-miterlimit: 10; stroke-width: .2px;"/>
    <polyline points=".7 309 25.5 309 53.9 309 82.2 309 110.6 309 138.9 309 167.2 309 195.6 309 223.9 309 252.3 309 280.6 309 309 309 337.3 309 365.7 309 394 309 422.4 309 450.7 309 479.1 309 503.9 309" style="fill: none; stroke: #fff; stroke-miterlimit: 10; stroke-width: .2px;"/>
    <polyline points=".7 280.6 25.5 280.6 53.9 280.6 82.2 280.6 110.6 280.6 138.9 280.6 167.2 280.6 195.6 280.6 223.9 280.6 252.3 280.6 280.6 280.6 309 280.6 337.3 280.6 365.7 280.6 394 280.6 422.4 280.6 450.7 280.6 479.1 280.6 503.9 280.6" style="fill: none; stroke: #fff; stroke-miterlimit: 10; stroke-width: .2px;"/>
    <polyline points=".7 252.3 25.5 252.3 53.9 252.3 82.2 252.3 110.6 252.3 138.9 252.3 167.2 252.3 195.6 252.3 223.9 252.3 252.3 252.3 280.6 252.3 309 252.3 337.3 252.3 365.7 252.3 394 252.3 422.4 252.3 450.7 252.3 479.1 252.3 503.9 252.3" style="fill: none; stroke: #fff; stroke-miterlimit: 10; stroke-width: .2px;"/>
    <polyline points=".7 223.9 25.5 223.9 53.9 223.9 82.2 223.9 110.6 223.9 138.9 223.9 167.2 223.9 195.6 223.9 223.9 223.9 252.3 223.9 280.6 223.9 309 223.9 337.3 223.9 365.7 223.9 394 223.9 422.4 223.9 450.7 223.9 479.1 223.9 503.9 223.9" style="fill: none; stroke: #fff; stroke-miterlimit: 10; stroke-width: .2px;"/>
    <polyline points=".7 195.6 25.5 195.6 53.9 195.6 82.2 195.6 110.6 195.6 138.9 195.6 167.2 195.6 195.6 195.6 223.9 195.6 252.3 195.6 280.6 195.6 309 195.6 337.3 195.6 365.7 195.6 394 195.6 422.4 195.6 450.7 195.6 479.1 195.6 503.9 195.6" style="fill: none; stroke: #fff; stroke-miterlimit: 10; stroke-width: .2px;"/>
    <polyline points=".7 167.2 25.5 167.2 53.9 167.2 82.2 167.2 110.6 167.2 138.9 167.2 167.2 167.2 195.6 167.2 223.9 167.2 252.3 167.2 280.6 167.2 309 167.2 337.3 167.2 365.7 167.2 394 167.2 422.4 167.2 450.7 167.2 479.1 167.2 503.9 167.2" style="fill: none; stroke: #fff; stroke-miterlimit: 10; stroke-width: .2px;"/>
    <polyline points=".7 138.9 25.5 138.9 53.9 138.9 82.2 138.9 110.6 138.9 138.9 138.9 167.2 138.9 195.6 138.9 223.9 138.9 252.3 138.9 280.6 138.9 309 138.9 337.3 138.9 365.7 138.9 394 138.9 422.4 138.9 450.7 138.9 479.1 138.9 503.9 138.9" style="fill: none; stroke: #fff; stroke-miterlimit: 10; stroke-width: .2px;"/>
    <polyline points=".7 110.6 25.5 110.6 53.9 110.6 82.2 110.6 110.6 110.6 138.9 110.6 167.2 110.6 195.6 110.6 223.9 110.6 252.3 110.6 280.6 110.6 309 110.6 337.3 110.6 365.7 110.6 394 110.6 422.4 110.6 450.7 110.6 479.1 110.6 503.9 110.6" style="fill: none; stroke: #fff; stroke-miterlimit: 10; stroke-width: .2px;"/>
    <polyline points=".7 82.2 25.5 82.2 53.9 82.2 82.2 82.2 110.6 82.2 138.9 82.2 167.2 82.2 195.6 82.2 223.9 82.2 252.3 82.2 280.6 82.2 309 82.2 337.3 82.2 365.7 82.2 394 82.2 422.4 82.2 450.7 82.2 479.1 82.2 503.9 82.2" style="fill: none; stroke: #fff; stroke-miterlimit: 10; stroke-width: .2px;"/>
    <polyline points=".7 53.9 25.5 53.9 53.9 53.9 82.2 53.9 110.6 53.9 138.9 53.9 167.2 53.9 195.6 53.9 223.9 53.9 252.3 53.9 280.6 53.9 309 53.9 337.3 53.9 365.7 53.9 394 53.9 422.4 53.9 450.7 53.9 479.1 53.9 503.9 53.9" style="fill: none; stroke: #fff; stroke-miterlimit: 10; stroke-width: .2px;"/>
    <polyline points="503.9 25.5 479.1 25.5 450.7 25.5 422.4 25.5 394 25.5 365.7 25.5 337.3 25.5 309 25.5 280.6 25.5 252.3 25.5 223.9 25.5 195.6 25.5 167.2 25.5 138.9 25.5 110.6 25.5 82.2 25.5 53.9 25.5 25.5 25.5 .7 25.5" style="fill: none; stroke: #fff; stroke-miterlimit: 10; stroke-width: .2px;"/>
    <polyline points="479.1 .7 479.1 25.5 479.1 53.9 479.1 82.2 479.1 110.6 479.1 138.9 479.1 167.2 479.1 195.6 479.1 223.9 479.1 252.3 479.1 280.6 479.1 309 479.1 337.3 479.1 365.7 479.1 394 479.1 422.4 479.1 450.7 479.1 479.1 479.1 503.9" style="fill: none; stroke: #fff; stroke-miterlimit: 10; stroke-width: .2px;"/>
    <polyline points="450.7 .7 450.7 25.5 450.7 53.9 450.7 82.2 450.7 110.6 450.7 138.9 450.7 167.2 450.7 195.6 450.7 223.9 450.7 252.3 450.7 280.6 450.7 309 450.7 337.3 450.7 365.7 450.7 394 450.7 422.4 450.7 450.7 450.7 479.1 450.7 503.9" style="fill: none; stroke: #fff; stroke-miterlimit: 10; stroke-width: .2px;"/>
    <polyline points="422.4 .7 422.4 25.5 422.4 53.9 422.4 82.2 422.4 110.6 422.4 138.9 422.4 167.2 422.4 195.6 422.4 223.9 422.4 252.3 422.4 280.6 422.4 309 422.4 337.3 422.4 365.7 422.4 394 422.4 422.4 422.4 450.7 422.4 479.1 422.4 503.9" style="fill: none; stroke: #fff; stroke-miterlimit: 10; stroke-width: .2px;"/>
    <polyline points="394 503.9 394 497.9 394 497.7" style="fill: none; stroke: #fff; stroke-miterlimit: 10; stroke-width: .2px;"/>
    <polyline points="394 460.3 394 450.7 394 422.4 394 394 394 365.7 394 337.3 394 309 394 280.6 394 252.3 394 223.9 394 195.6 394 167.2 394 138.9 394 110.6 394 82.2 394 53.9 394 25.5 394 .7" style="fill: none; stroke: #fff; stroke-miterlimit: 10; stroke-width: .2px;"/>
    <polyline points="365.7 503.9 365.7 499.5 365.7 499.4" style="fill: none; stroke: #fff; stroke-miterlimit: 10; stroke-width: .2px;"/>
    <polyline points="365.7 458.7 365.7 450.7 365.7 422.4 365.7 394 365.7 365.7 365.7 337.3 365.7 309 365.7 280.6 365.7 252.3 365.7 223.9 365.7 195.6 365.7 167.2 365.7 138.9 365.7 110.6 365.7 82.2 365.7 53.9 365.7 25.5 365.7 .7" style="fill: none; stroke: #fff; stroke-miterlimit: 10; stroke-width: .2px;"/>
    <polyline points="337.3 503.9 337.3 499.5 337.3 499.4" style="fill: none; stroke: #fff; stroke-miterlimit: 10; stroke-width: .2px;"/>
    <polyline points="337.3 458.7 337.3 450.7 337.3 422.4 337.3 394 337.3 365.7 337.3 337.3 337.3 309 337.3 280.6 337.3 252.3 337.3 223.9 337.3 195.6 337.3 167.2 337.3 138.9 337.3 110.6 337.3 82.2 337.3 53.9 337.3 25.5 337.3 .7" style="fill: none; stroke: #fff; stroke-miterlimit: 10; stroke-width: .2px;"/>
    <polyline points="309 503.9 309 499.5 309 499.4" style="fill: none; stroke: #fff; stroke-miterlimit: 10; stroke-width: .2px;"/>
    <polyline points="309 458.7 309 450.7 309 422.4 309 394 309 365.7 309 337.3 309 309 309 280.6 309 252.3 309 223.9 309 195.6 309 167.2 309 138.9 309 110.6 309 82.2 309 53.9 309 25.5 309 .7" style="fill: none; stroke: #fff; stroke-miterlimit: 10; stroke-width: .2px;"/>
    <polyline points="280.6 503.9 280.6 499.5 280.6 499.4" style="fill: none; stroke: #fff; stroke-miterlimit: 10; stroke-width: .2px;"/>
    <polyline points="280.6 458.7 280.6 450.7 280.6 422.4 280.6 394 280.6 365.7 280.6 337.3 280.6 309 280.6 280.6 280.6 252.3 280.6 223.9 280.6 195.6 280.6 167.2 280.6 138.9 280.6 110.6 280.6 82.2 280.6 53.9 280.6 25.5 280.6 .7" style="fill: none; stroke: #fff; stroke-miterlimit: 10; stroke-width: .2px;"/>
    <polyline points="252.3 503.9 252.3 499.5 252.3 499.4" style="fill: none; stroke: #fff; stroke-miterlimit: 10; stroke-width: .2px;"/>
    <polyline points="252.3 458.7 252.3 450.7 252.3 422.4 252.3 394 252.3 365.7 252.3 337.3 252.3 309 252.3 280.6 252.3 252.3 252.3 223.9 252.3 195.6 252.3 167.2 252.3 138.9 252.3 110.6 252.3 82.2 252.3 53.9 252.3 25.5 252.3 .7" style="fill: none; stroke: #fff; stroke-miterlimit: 10; stroke-width: .2px;"/>
    <polyline points="223.9 503.9 223.9 499.5 223.9 499.4" style="fill: none; stroke: #fff; stroke-miterlimit: 10; stroke-width: .2px;"/>
    <polyline points="223.9 458.7 223.9 450.7 223.9 422.4 223.9 394 223.9 365.7 223.9 337.3 223.9 309 223.9 280.6 223.9 252.3 223.9 223.9 223.9 195.6 223.9 167.2 223.9 138.9 223.9 110.6 223.9 82.2 223.9 53.9 223.9 25.5 223.9 .7" style="fill: none; stroke: #fff; stroke-miterlimit: 10; stroke-width: .2px;"/>
    <polyline points="195.6 503.9 195.6 499.5 195.6 499.4" style="fill: none; stroke: #fff; stroke-miterlimit: 10; stroke-width: .2px;"/>
    <polyline points="195.6 458.7 195.6 450.7 195.6 422.4 195.6 394 195.6 365.7 195.6 337.3 195.6 309 195.6 280.6 195.6 252.3 195.6 223.9 195.6 195.6 195.6 167.2 195.6 138.9 195.6 110.6 195.6 82.2 195.6 53.9 195.6 25.5 195.6 .7" style="fill: none; stroke: #fff; stroke-miterlimit: 10; stroke-width: .2px;"/>
    <polyline points="167.2 503.9 167.2 499.5 167.2 499.4" style="fill: none; stroke: #fff; stroke-miterlimit: 10; stroke-width: .2px;"/>
    <polyline points="167.2 458.7 167.2 450.7 167.2 422.4 167.2 394 167.2 365.7 167.2 337.3 167.2 309 167.2 280.6 167.2 252.3 167.2 223.9 167.2 195.6 167.2 167.2 167.2 138.9 167.2 110.6 167.2 82.2 167.2 53.9 167.2 25.5 167.2 .7" style="fill: none; stroke: #fff; stroke-miterlimit: 10; stroke-width: .2px;"/>
    <polyline points="138.9 503.9 138.9 499.5 138.9 499.4" style="fill: none; stroke: #fff; stroke-miterlimit: 10; stroke-width: .2px;"/>
    <polyline points="138.9 458.7 138.9 450.7 138.9 422.4 138.9 394 138.9 365.7 138.9 337.3 138.9 309 138.9 280.6 138.9 252.3 138.9 223.9 138.9 195.6 138.9 167.2 138.9 138.9 138.9 110.6 138.9 82.2 138.9 53.9 138.9 25.5 138.9 .7" style="fill: none; stroke: #fff; stroke-miterlimit: 10; stroke-width: .2px;"/>
    <polyline points="110.6 503.9 110.6 497.9 110.6 497.8" style="fill: none; stroke: #fff; stroke-miterlimit: 10; stroke-width: .2px;"/>
    <polyline points="110.6 460.3 110.6 450.7 110.6 422.4 110.6 394 110.6 365.7 110.6 337.3 110.6 309 110.6 280.6 110.6 252.3 110.6 223.9 110.6 195.6 110.6 167.2 110.6 138.9 110.6 110.6 110.6 82.2 110.6 53.9 110.6 25.5 110.6 .7" style="fill: none; stroke: #fff; stroke-miterlimit: 10; stroke-width: .2px;"/>
    <polyline points="82.2 .7 82.2 25.5 82.2 53.9 82.2 82.2 82.2 110.6 82.2 138.9 82.2 167.2 82.2 195.6 82.2 223.9 82.2 252.3 82.2 280.6 82.2 309 82.2 337.3 82.2 365.7 82.2 394 82.2 422.4 82.2 450.7 82.2 479.1 82.2 503.9" style="fill: none; stroke: #fff; stroke-miterlimit: 10; stroke-width: .2px;"/>
    <polyline points="53.9 503.9 53.9 497.9 53.9 497.9" style="fill: none; stroke: #fff; stroke-miterlimit: 10; stroke-width: .2px;"/>
    <polyline points="53.9 460.1 53.9 450.7 53.9 422.4 53.9 394 53.9 365.7 53.9 337.3 53.9 309 53.9 280.6 53.9 252.3 53.9 223.9 53.9 195.6 53.9 167.2 53.9 138.9 53.9 110.6 53.9 82.2 53.9 53.9 53.9 25.5 53.9 .7" style="fill: none; stroke: #fff; stroke-miterlimit: 10; stroke-width: .2px;"/>
    <polyline points="25.5 503.9 25.5 497.8 25.5 497.7" style="fill: none; stroke: #fff; stroke-miterlimit: 10; stroke-width: .2px;"/>
    <polyline points="25.5 460.4 25.5 460.3 25.5 450.7 25.5 422.4 25.5 394 25.5 365.7 25.5 337.3 25.5 309 25.5 280.6 25.5 252.3 25.5 223.9 25.5 195.6 25.5 167.2 25.5 138.9 25.5 110.6 25.5 82.2 25.5 53.9 25.5 25.5 25.5 .7" style="fill: none; stroke: #fff; stroke-miterlimit: 10; stroke-width: .2px;"/>
  </g>
  <rect x="19.5" y="458.7" width="40.7" height="40.7" rx="12" ry="12" style="fill: none; stroke: #fff; stroke-miterlimit: 10; stroke-width: .8px;"/>
  <path d="m41.5,493.2c.8-.9,1.3-1.5,1.6-1.7.3-.3.4-.4.5-.4s0,0,.2,0c0,0,0,0,0,.2s0,.2-.3.4c-.3.3-.6.6-1.1,1.1-.4.5-.7.7-.7.8v.2s.2.3.5.6c.2.3.4.5.5.6s.3.2.4.3c0,0,.2.2.3.3,0,0,0,.2,0,.2v.2h-.2c-.2,0-.4,0-.6-.3s-.6-.7-1.1-1.3c0,0-.2-.3-.3-.4,0,0,0,.2-.2.3-.9.9-1.3,1.4-1.4,1.7,0,.3-.2.4-.2.5s-.2,0-.4,0-.3,0-.3-.3.6-1.1,1.9-2.4c.2-.2.3-.3.3-.3,0,0,0,0-.2-.4-.8-1-1.2-1.6-1.2-1.7v-.3c0,0,0,0,.2,0s.3,0,.4.4c.2.5.6,1.1,1.2,1.7h0Z" style="fill: #fff;"/>
  <path d="m24.6,477.2c-.2-.2-.4-.5-.7-.9-.2-.3-.4-.5-.5-.6s-.2-.2-.4-.3c-.2-.2-.3-.3-.4-.4v-.2c0,0,0,0,0,0s0,0,.2,0,.3,0,.6.3c.2.2.4.4.6.7.6.7.9,1.1,1,1.2,0,0,.3-.3.4-.5.8-.8,1.2-1.3,1.4-1.5.2-.3.4-.4.5-.4h.2v.2c0,0,0,.2-.3.4-.2.2-.6.7-1.4,1.5s-.6.6-.6.7,0,.4-.2.9,0,.9,0,1.2v.3h-.3c-.2,0-.3,0-.3-.4s0-.5,0-.9c0-.4,0-.7,0-.9v-.3h0Z" style="fill: #fff;"/>
  <line x1="29.1" y1="464.4" x2="29.1" y2="489.9" style="fill: none; stroke: #fff; stroke-linecap: round; stroke-miterlimit: 10; stroke-width: 1px;"/>
  <line x1="29.1" y1="489.9" x2="54.6" y2="489.9" style="fill: none; stroke: #fff; stroke-linecap: round; stroke-miterlimit: 10; stroke-width: 1px;"/>
</svg>